<svg xmlns="http://www.w3.org/2000/svg" width="90.765" height="83.673" viewBox="0 0 90.765 83.673"><path d="M70.4,61.218a4.6,4.6,0,0,1-3.252,1.518c-.426-.018-.854.521-1.311.582a19.13,19.13,0,0,1-2.445.028l.822,1.043c-.73-.233-1.022,1.207-1.936.25-.428-.448-1.259-.538-1.626-1.01a58.237,58.237,0,0,1-3.438-4.881c-1.091-1.745-2.1-3.55-3.012-5.4-1.018-2.062-1.857-4.21-2.823-6.3-1.069-2.312-2.2-4.6-3.289-6.9-.863-1.828-1.75-3.648-2.535-5.509q-1.3-3.074-2.417-6.22c-1-2.771-1.932-5.563-2.861-8.358a2.768,2.768,0,0,1,1.286-3.1c.249-.131.625-.019.92-.019-.466-1.267-.7-2.607.814-3.655.265-.184.188-.807.384-1.163.169-.308.482-.7.769-.733.268-.031.686.3.862.578.931,1.485,1.786,3.017,2.706,4.509.9,1.461,1.956,2.836,2.753,4.35,1.875,3.565,3.628,7.193,5.447,10.788.793,1.568,1.669,3.1,2.435,4.676q2.529,5.216,4.979,10.47c1.192,2.546,2.317,5.122,3.507,7.668C68.172,56.661,69.259,58.861,70.4,61.218ZM81.916,4.146c-.569.416-.7,1.492-.928,2.3-.22.765-.236,1.591-.475,2.349-.429,1.36-.962,2.686-1.445,4.03-.231.643-.4,1.312-.688,1.929-.147.318-.752.661-.694.8.578,1.38-1.432,2.1-.829,3.444-1.279.246-.6,1.068-.561,1.745.013.225-.329.471-.509.707l.369.1a27.094,27.094,0,0,0-.949,2.841,6.98,6.98,0,0,1-1.188,2.867c.271.383.553.61.518.763a4.752,4.752,0,0,1-.735,2.217,2.1,2.1,0,0,0-.563,1.436c-.084.486-.551.9-.655,1.39-.588,2.772-1.16,5.549-1.655,8.339-.513,2.9-.948,5.81-1.37,8.723-.046.32.215.685.373,1.144-.775,1.152-.668,6.874.3,7.288l.675-.569c.791.71,1.445,1.714,2.576.25.357-.462.907-.729.955-1.437a.969.969,0,0,1,.364-.714c.824-.4,1.689-.723,2.626-1.109a3.671,3.671,0,0,0-.268,1.323,3.841,3.841,0,0,0,.708,1.242l.508-.12c.609-1.6,1.352-3.164,1.8-4.809.864-3.185,1.573-6.413,2.325-9.628.781-3.337,1.563-6.675,2.295-10.024.319-1.461.479-2.956.778-4.422.187-.919.533-1.8.746-2.719.248-1.066.348-2.172.653-3.219.763-2.616,1.662-5.193,2.4-7.816.545-1.948.937-3.94,1.351-5.921a7.477,7.477,0,0,0,.015-1.5l-.369-.053a7.073,7.073,0,0,0-.468.966c-.606,1.928-1.2,3.86-1.777,5.8-.789,2.672-1.573,5.346-2.318,8.03-.522,1.877-.968,3.774-1.464,5.658-.264,1-.54,2.008-.871,2.992-.049.146-.432.181-.977.385,0-1.253-.047-2.248.021-3.235a9.374,9.374,0,0,1,.434-1.365c.4-1.713.725-3.448,1.181-5.146.506-1.886,1.116-3.744,1.7-5.609.543-1.748,1.139-3.48,1.647-5.238.437-1.512.8-3.045,1.147-4.581a2.686,2.686,0,0,0-.187-1l-.463-.049-1.394,3-.3-.109q.121-.852.241-1.7A1.858,1.858,0,0,0,85.851,4a1.581,1.581,0,0,1-.5-1.406A1.829,1.829,0,0,0,84.368,0C83.247,1.18,83.4,3.065,81.916,4.146ZM82.059,31.6l.431.035L82.137,35.2l-.488.007Q81.854,33.4,82.059,31.6ZM49.584,77.692a1.631,1.631,0,0,0-1.654-1.977,6.077,6.077,0,0,1-1.521-.175c-2.18-.621-4.349-1.283-6.52-1.936-.641-.193-1.283-.383-1.91-.614-1.494-.553-2.955-1.211-4.474-1.677-2.092-.643-4.228-1.142-6.342-1.714-2.839-.769-5.661-1.607-8.518-2.3-1.888-.459-3.858-.593-5.731-1.1a40.682,40.682,0,0,0-10.37-.967c-.891-.007-1.252.363-1.4,1.249A4.245,4.245,0,0,1,.282,68.3c-.358.459-.436,1.552.124,1.752,1.37.491,2.764.926,4.167,1.316,2.515.7,5.061,1.294,7.562,2.04,2.271.678,4.494,1.518,6.748,2.253q6.056,1.974,12.126,3.907c.873.28,1.756.527,2.634.791,2.213.666,4.4,1.431,6.645,1.97a54.635,54.635,0,0,0,5.98,1.006c2.064.259,4.157.717,6.559-.278-.47-.424-.74-.825-1.108-.959a7.408,7.408,0,0,0-1.729-.168c.729-.526,1.952-.629,1.183-1.689-.2-.277-.887-.2-1.611-.339A16.984,16.984,0,0,1,49.584,77.692Zm6.259-12.754a19.157,19.157,0,0,0-1.892-2.513q-4.472-4.954-9.009-9.849c-1.549-1.68-3.1-3.361-4.709-4.984q-4.3-4.335-8.663-8.6T22.8,30.5c-.858-.826-1.648-2.152-3.026-.635-.049.054-.345-.155-.438-.1a9.924,9.924,0,0,0-2.019,1.4c-.171.177.114.987.387,1.366,1.63,2.27,3.238,4.563,5.006,6.724,2.181,2.666,4.478,5.241,6.786,7.8,2.288,2.535,4.682,4.975,6.974,7.506,1.6,1.765,3.066,3.65,4.671,5.409.685.751,1.635,1.255,2.357,1.98q2.362,2.371,4.605,4.859c1.194,1.322,2.307,2.717,3.456,4.079L52,70.143l3.02.424c.616-.619.613-1.329-.357-2.766C56.809,67.375,57.041,66.813,55.842,64.939ZM28.48,37.921c2.793,2.867,5.664,5.658,8.469,8.514,1.744,1.776,3.434,3.607,5.114,5.444a8.1,8.1,0,0,1,.832,1.362l-.331.27c-.364-.417-.715-.847-1.1-1.247-2-2.1-3.971-4.238-6.02-6.293-2.068-2.074-4.216-4.068-6.328-6.1L26.649,37.5c-1.007-1.117-2-2.246-3.024-3.348-.677-.729-1.43-1.389-2.075-2.144a3.759,3.759,0,0,1-.445-1.161l.274-.168c.7.676,1.428,1.329,2.1,2.032,1.017,1.062,2.054,2.114,2.96,3.266.273.347.143,1.011.2,1.53C27.375,37.1,27.89,37.316,28.48,37.921Z" transform="translate(0 -0.001)" fill="#00c4cc"/></svg>
