<svg xmlns="http://www.w3.org/2000/svg" width="126.301" height="181.151" viewBox="0 0 126.301 181.151"><path d="M14.007,79.494a3.781,3.781,0,0,0,1.3.043A21.16,21.16,0,0,0,22.075,75c.132-.125.285-.365.214-.467-1.356-1.943,1.416-2.374,2.305-3.515l-.149,1.19.376.074,1.2-1.484a8.081,8.081,0,0,1-.852-.653c.46-.44,1-.835,1.435-1.18,1.244-1.722,2.166-3.646,3.832-5.086a8.806,8.806,0,0,0,2.371-3.2,35.067,35.067,0,0,1,2.916-4.167C38.747,52,41.81,47.5,43.884,42.67c.981-2.282,1.809-4.611,3.017-6.823a6.248,6.248,0,0,1,2.77-2.178c2.1-.974,4.356-1.764,6.6-2.552,1.894-.666,3.872-1.2,5.782-1.836a23.644,23.644,0,0,0,2.236-1,12.094,12.094,0,0,0,1.956-.123c5.6-1.232,11.115-2.708,16.785-3.7,6.565-1.149,13.228-1.316,19.684.63a8.386,8.386,0,0,1,5.223,3.789c.911,1.569.739,3.1.8,4.649.175,4.307-1.379,8.408-3.23,12.417-1.3,2.812-3.008,5.52-4.61,8.25a28.923,28.923,0,0,1-2.419,3.475A8.438,8.438,0,0,1,96.4,59.484c-.3.19-1.072-.075-1.627-.064-.979.019-1.962.056-2.931.156a13.736,13.736,0,0,1-1.386.274,14.173,14.173,0,0,1-1.615.431c-.482.074-1.029-.059-1.5.038-3.717.774-7.5,1.415-11.106,2.423-3.582,1-7,2.347-10.441,3.615-1.349.5-2.544,1.225-3.855,1.788-2.085.9-4.3,1.639-6.289,2.636-1.851.927-3.483,2.1-5.207,3.168-.22.136-.378.381-.621.437-2.481.575-3.954,2.13-5.824,3.3-.5.315-1.3.367-1.794.689a68.913,68.913,0,0,0-6.5,4.47,85.342,85.342,0,0,0-8.964,8.279A23.414,23.414,0,0,0,22.673,98.1c-1.215,3.034-.316,5.85,3.054,8.026a16.209,16.209,0,0,0,2.2,1.356c0,.6-.1,1.1,1.283,1.241.765.076,1.33.981,2.1,1.386a12.268,12.268,0,0,0,6.279,1.2c1.388-.054,2.807.181,4.176.06,1.79-.158,3.539-.558,5.317-.816a14.928,14.928,0,0,1,1.8-.066c.16,0,.369.084.475.034,2.688-1.276,6.086-.966,8.792-2.43,2.548-1.378,5.611-2.206,8.332-3.422a16.039,16.039,0,0,0,2.825-2.066,2.286,2.286,0,0,1,.543-.212c1.68-.607,1.822-.859,1.259-2.144-.865.438-1.746.884-2.625,1.331a16.2,16.2,0,0,1-1.4,1.02c-.292.173-.832.151-1.051.347-2,1.79-4.834,2.635-7.374,3.87-.4-.708-.77-1.253.671-1.441.509-.066.9-.635,1.093-.779a9.62,9.62,0,0,0,2.03-.473c1.186-.621,2.2-1.436,3.427-2a11.857,11.857,0,0,1,2.648-.516c-.1-.154-.339-.354-.28-.454.183-.307.446-.8.738-.821,1.2-.1,1.926-1.18,3.2-.878.181.043.025.885.025,1.353,1.675-.389,4.955-2.637,5.4-5.405l1.037.51c.064-.421.114-.757.19-1.256l1.177.266,1.905-1.994-1.342-.816,1.3-1.028,1.009.86c1.329-.312,3.807-2.973,3.521-3.67l2.4-1.387-.666-1.445.414-.13.614.766c.682-.754,1.308-1.454,1.946-2.149,1.732-1.887,3.5-3.754,5.194-5.66C98.186,76.15,100,74,101.831,71.87a11.985,11.985,0,0,1,.77-.982c.65-.618.981-1.627,2.581-1.1.912.3,1.934.408,2.895.629.262.06.467.273.728.322,2.515.47,3.08,1,3.138,2.845a18.13,18.13,0,0,1,.24,3.169,12.287,12.287,0,0,1-1.2,3.375c-.728,1.52-1.57,3.013-2.446,4.49a12.994,12.994,0,0,1-1.694,2.279c-1.448,1.541-3.144,2.961-4.46,4.559-2.316,2.811-5.4,5.131-8.222,7.618q-5.522,4.866-11.095,9.7c-3.046,2.636-6.1,5.266-9.225,7.851-2.215,1.833-4.556,3.579-6.828,5.373-1.7,1.346-3.438,2.674-5.064,4.071-1.462,1.257-2.754,2.624-4.2,3.893-1,.874-2.185,1.624-3.176,2.5-1.374,1.215-2.667,2.482-3.951,3.752-1.556,1.539-2.964,3.169-4.626,4.639-1.629,1.44-3.5,2.726-5.532,4.285h1.572l-1.285,1.245c-.406-.058-1.157-.32-1.37-.165a1.531,1.531,0,0,0-.548,1.441c-.427.119-1.022.144-1.25.375a11.346,11.346,0,0,1-2.672,2.074,26.656,26.656,0,0,0-4.332,3.4c-.769.658-1.33,1.457-2.127,2.092a7.646,7.646,0,0,1-1.823.739c-1.59-2.183.468-4.506-.226-6.892-.6-2.071.476-4.418.843-6.844l-1.4.3a3.689,3.689,0,0,0-1.714-5.589l1.261-.082.065-.255-1.58-.247a35.957,35.957,0,0,0-3.91-14.133,14.573,14.573,0,0,0-1.054-1.972c-.2-.285-.87-.7-1-.645-1.113.488-2.15,1.072-3.731,1.9-1.539.067-1.807.506-1.3,2.289a29.4,29.4,0,0,1,.85,4.877,66.166,66.166,0,0,1,.651,8.171,58.833,58.833,0,0,1-.922,7.94,52.009,52.009,0,0,1-1.506,7.838c-1.1,3.5-2.6,6.93-4.016,10.37-.939,2.278-1.96,4.542-3.091,6.769-1.041,2.048-2.441,4-3.362,6.074a7.182,7.182,0,0,0-.321,3.528c.051.583.847.909,1.661.368a6.475,6.475,0,0,1,1.376-.924,2.181,2.181,0,0,1,1.437.108c1.212.668,1.435.63,1.95-.767l.807,2,.68-1.007c1.031,1.279,2,1.342,3.285.346a12.3,12.3,0,0,1,1.824-.967l.336.412a6.456,6.456,0,0,0-1.107.43,6.2,6.2,0,0,0-.881.785c.431.229.92.689,1.281.638a6.161,6.161,0,0,0,2.289-.768c1.482-.919,2.783-2,4.274-2.915,1.154-.705,2.483-1.25,3.737-1.863,2.793-1.366,5.489-2.866,8.41-4.055,2.9-1.181,6.023-2.062,9.064-3.048,1.645-.533,3.341-.976,4.979-1.52,1.149-.382,2.238-.867,3.494-1.362,1.624.555,8.425-.523,8.859-1.285a6.521,6.521,0,0,0,1.526.336c3.053-.1,6.116-.426,9.15-.31,1.85.071,3.633.874,5.491,1.209.915.165,1.885,1.166,2.941.089.075-.076.729.2,1.127.264,2.059.337,4.187.522,6.16,1.041,1.063.279,1.91.437,2.1-.407.1-.448-.718-1.1-1.291-1.531-.884-.668-1.914-1.228-2.882-1.834l.243-.3,1.349-.079c-.253-.541-.46-1.042-.722-1.526-.229-.424-.754-.833-.742-1.242.05-1.686-1.433-2.554-3.044-3.285a33.127,33.127,0,0,0-5.868-2.281c-3.5-.842-6.954-1.895-10.86-1.5a63.6,63.6,0,0,1-7.371-.132c-.789-.013-1.581.088-2.767.161,1.946-2.223,3.68-4.339,5.6-6.357,1.8-1.892,3.478-3.973,5.823-5.4,1.394-.85,1-2.687,3.236-2.849a7.571,7.571,0,0,0,.006-1.073l1.017.208,15.141-12.6-1.4-.847c2.427-.3.361-1.827,1.424-2.519l1.33,2.372c1.822-1.428,3.781-2.5,4.842-3.94.856-1.163,2.6-1.154,3.4-2.234a23.45,23.45,0,0,1,2.941-2.653c1.571-1.468,3.1-2.96,4.635-4.451.733-.714,1.414-1.459,2.154-2.169a1.946,1.946,0,0,1,.7-.3c.265-.084.756-.1.791-.206.514-1.6,3.309-2.167,3.232-4.031,0-.117.308-.352.46-.346,1.553.062,1.382-.785,1.415-1.3a8.314,8.314,0,0,0,2.193-1.14c2.03-2.3,4-4.628,5.833-7.018.759-.992.989-2.205,1.669-3.24,1.64-2.493,3.6-4.817,4.585-7.6.847-2.381,2.015-4.676,1.778-7.164a26.158,26.158,0,0,0-1.057-4.669c-.071-.247-.774-.392-1.165-.575-.121-.846-.24-1.676-.368-2.567l-.49-.052.372-.983H121.6l.425-1.154c-.286-.038-.878-.1-1.459-.2-1.111-.185-1.765-.524-1.132-1.512.219-.342.035-.829.035-1.25l-.549-.126-.839,1.455c-1.049-.481-2.279-1.082-3.56-1.615-.8-.335-1.461-.6-1.047-1.461.141-.294-.263-.736-.388-1.037l-2.563,1.283-.494-.339c1.626-2.757,3.377-5.476,4.848-8.279,2.1-4,4.313-8,5.192-12.277a37.388,37.388,0,0,0,.442-6.484,16.007,16.007,0,0,0-1.678-8.132c-.576-1.09-1.61-2.1-2.224-3.113a10.031,10.031,0,0,0-3.939-3.492,30.291,30.291,0,0,0-12.522-3.71,134.327,134.327,0,0,0-13.82-.266c-2.933.083-5.835.741-8.756,1.117-1.394.179-2.818.242-4.194.472a17.4,17.4,0,0,0-1.85.729c-.5.146-1.14.05-1.62.218-2.035.712-4.321.833-6.339,1.589-1.423.534-2.921.953-4.365,1.456-2.438.849-4.86,1.723-7.573,2.688.017.014-.551-.276-.492-.445.4-1.153-.121-2.335.565-3.53a7.586,7.586,0,0,0,.576-3.567,22.747,22.747,0,0,0-.154-5.031,17.7,17.7,0,0,0-3.9-8.667A9.346,9.346,0,0,0,41.5.032,1.788,1.788,0,0,0,40.468.6c-.106.125.278.452.353.7.484,1.625,3.007,1.7,3.971,3a10.749,10.749,0,0,1,2,6.526,48.09,48.09,0,0,1-.738,8.727,26.66,26.66,0,0,1-2.177,6.93c-.439.916-2.14,1.506-3.306,2.207-2.331,1.4-4.757,2.722-7.019,4.184-3.256,2.1-6.515,4.22-9.558,6.493A63.189,63.189,0,0,0,16.385,45.8C12.751,49.559,9.331,53.443,6.1,57.4A28.389,28.389,0,0,0,.459,67.712,8.948,8.948,0,0,0,.15,72.029a8.355,8.355,0,0,0,2.306,3.5,12.359,12.359,0,0,0,5.021,3.566,31.5,31.5,0,0,0,5.317.988c.358.049.832-.379,1.245-.588-.373-.212-.739-.423-1.023-.587l7.912-4.427c-.022.278.1.671-.085.781-1.905,1.144-3.87,2.231-5.791,3.36A7.6,7.6,0,0,0,14.007,79.494Zm36.408,28.7c-.129.308-.162.824-.406.888a15.161,15.161,0,0,1-2.744.431c-.942.068-1.9.015-3.03.015,1.353-1.131,3.859.256,4.452-1.418l1.743.092c1.717-.579,3.664-.8,4.958-2.033.255-.241,1.185-.081,1.8-.106.008.374.229.938-.011,1.09-1.688,1.066-3.882,1.051-5.909,1.377C51.027,108.571,50.695,108.309,50.415,108.2ZM87.422,70.874l.366.417c-1.14,1.331-2.243,2.681-3.426,3.99-2.423,2.679-4.849,5.358-7.357,7.993C76,84.33,74.747,85.252,73.658,86.265c-1.677,1.56-3.2,3.222-4.994,4.7-1.723,1.42-3.687,2.678-5.583,3.977a28.642,28.642,0,0,1-3.975,2.528,93.527,93.527,0,0,1-13.937,5.338c-.765.22-1.5.3-2.243.463-.9.195-1.764.478-2.644.723a2.274,2.274,0,0,1-.736.19c-1.325-.139-2.652-.285-3.962-.491-2.241-.351-3.8-2-2.845-3.258a46.95,46.95,0,0,1,5.329-6.156,67.58,67.58,0,0,1,6.394-4.734A35.759,35.759,0,0,1,48.06,87c2.053-1.14,4.332-2.052,6.361-3.213a10.231,10.231,0,0,1,2.347-1.228,12.544,12.544,0,0,0,1.925-1.034c1.449-.711,2.95-1.365,4.367-2.109.286-.15.3-.6.413-.854a3.733,3.733,0,0,0,1.175.035,31.112,31.112,0,0,0,2.938-1.148c2.629-1.175,5.16-2.49,7.88-3.53a53.17,53.17,0,0,1,5.946-1.546Q84.416,71.619,87.422,70.874ZM37.546,40.192l.415.216c-.618,1.174-1.193,2.363-1.863,3.521C33.878,47.759,31.7,51.6,29.353,55.39c-1.385,2.231-3.018,4.378-4.629,6.525A49.054,49.054,0,0,1,20.5,67.1c-2.092,2.12-4.4,4.125-6.76,6.086a4.316,4.316,0,0,1-4.034.983,2.55,2.55,0,0,1-1.871-2.216c-.467-1.938.754-3.63,1.135-5.438a5.082,5.082,0,0,1,.984-1.848c.732-.982,1.707-1.872,2.32-2.889.348-.577-.118-1.463.294-1.98,2.09-2.618,4.215-5.232,6.585-7.709,2.332-2.438,4.972-4.712,7.643-7.213.829,1.558-1.265,2.433-1.137,3.663l1.751-1.435-.335-.184A9.349,9.349,0,0,0,28.9,46.2C31.809,44.224,34.669,42.2,37.546,40.192Zm-2.593,9.846.518.319c-2.423,3.482-4.835,6.969-7.3,10.436-.148.208-.677.264-1.029.391-.039-.224-.212-.5-.1-.664,2.1-3.03,4.2-6.055,6.366-9.058A10.809,10.809,0,0,1,34.953,50.039ZM78.862,70.8q.023.2.046.406l-3,1.1c-.42-2.154,2.193-1.746,2.578-2.314l4.506-.644.446,1.475-1.631-.906.341.284-2.194,1.058ZM15.433,127.305c1.591,1.359,2.435,9.044,1.642,10.51ZM39.22,36.279l.492.368c-.9,1.7-2.967,2.756-4.64,4.074l-1.519-.906Zm18.36,119.006a13.337,13.337,0,0,1-1.914.672,18.7,18.7,0,0,1-2.944.315c-.242.006-.744-.463-.71-.677.111-.7,1.961-1.153,3.034-.843C55.7,154.941,56.41,155.043,57.579,155.284ZM52.428,82.714l.052.33-3.44,2.017-.39-.115c.234-.55.252-1.356.749-1.591A13.386,13.386,0,0,1,52.428,82.714ZM24.566,152.526l-1.755,3.682c-.135-.175-.636-.526-.559-.776.348-1.125.86-2.222,1.356-3.434ZM53.644,82.2c0-.594-.177-1.416.031-1.476a19.9,19.9,0,0,1,2.947-.427l.147.421ZM7.724,59.311c-.869-1.286.425-2.051,1.1-2.944a.975.975,0,0,1,.681-.055.391.391,0,0,1,.159.438C9.047,57.608,8.384,58.449,7.724,59.311Zm16.059,5.623c.354,1.361-1,2.891-2.479,3.042Zm17.558,24.06-.268-.3,2.509-1.99c.053.683.342,1.362.072,1.528A10.4,10.4,0,0,1,41.341,88.993Z" transform="translate(0.002 -0.001)" fill="#5A32FA"/></svg>