<svg xmlns="http://www.w3.org/2000/svg" width="300.231" height="83.872" viewBox="0 0 300.231 83.872">
  <path id="Brand_Doodle_Arrow-39" data-name="Brand Doodle_Arrow-39" d="M158.039.513c2.118-.13,4.236-.362,6.355-.37,8.732-.035,17.485-.371,26.188.131,6.173.356,12.368.051,18.512.778,2.035.241,4.023,1.026,6.054,1.121,3.613.169,7.244-.106,10.861.013,2.45.081,4.888.519,7.338.8-.729,1.5-3.972,1.435-5.376.308a14.305,14.305,0,0,1-2.674.848c-4.483.386-8.8-1.75-13.428-.629-2.21.535-4.721-.2-7.1-.295a11.929,11.929,0,0,0-2.064.268q.024.377.048.754c2.837.262,5.67.609,8.513.764,4.172.228,8.436-.119,12.489.666,1.772.343,3.541,1.413,5.516,1.286,1.312-.084,2.612-.346,3.916-.531.348-.05.819-.291,1.023-.146,3.72,2.625,8.123,1.516,12.189,2.166,1.151.184,2.48-.746,4.3-1.356L247.8,5.22c6-2.156,11.449,1,17.138,1.57l-.044.729-10.266-.866c2.242,3.283,3.109,3.645,4.228,2.7l28.495,4.6-.017.5-2.378.407,9.289,2.755q0,.4-.007.809c-.7.27-1.408.524-2.1.818-.316.135-.868.389-.848.518.063.415.385,1.156.533,1.139,2.646-.305.94,1.854,1.686,2.795,1.959-.057,3.358.787,3.544,3.5-3.989.309-7.91.7-11.841.888-2.961.143-6-.378-8.888.111-7.22,1.225-14.473-.124-21.7.693-4.77.539-9.639.137-14.457.338-2.485.1-4.956.6-7.431.926-2.1.28-4.217.462-6.281.9-2.113.452-4.61-.9-6.35,1.311-2.175-2.252-3.657.275-5.452.743-.436.114-1-.252-2.085-.566l-15.4,3.229-1.728-1.858.04.91c-1.48.48-2.942,1.027-4.445,1.421a16.411,16.411,0,0,1-4.884.964c-2.857-.167-5.509.7-8.257.966-1.018.1-3.186,1.468-3.485-1.32a9.217,9.217,0,0,0-3.312.379l1.835.757a2.5,2.5,0,0,1-.129.567c-.993.026-1.987.02-3.611.02-4.321,2.287-9.617,1.5-14.945,1.145l1.715.719q-.014.4-.029.791l-5.186.45-.063-.319,1.925-.83-.14-.53c-2.929.52-6.038.61-8.712,1.736-1.382.582-2.3-.118-3.331.149-4.4,1.149-8.741,2.538-13.152,3.647-2.018.508-4.2.355-6.218.875-8.217,2.122-16.655,3.379-24.421,7.236C92.879,55.51,88.472,56,84.489,57.465c-6.1,2.237-12.067,4.822-18.136,7.14-1.079.412-2.385.2-3.574.36-1.294.176-2.586.4-3.857.7-3.8.9-7.579,1.847-11.374,2.751-.2.047-.454-.146-1.205-.412,2.258-1.45,4.127-2.82,6.152-3.894,1.463-.776,1.683-1.908,1.037-3.024a43.134,43.134,0,0,0-3.625-4.625c2.714-1.645,5.449-3.247,8.108-4.969.422-.273.51-1.078.727-1.646.6-1.563,1.515-2.078,2.543-1.264,1.541-.993,2.864-2,4.319-2.748,2.287-1.177,4.652-2.209,7.019-3.22.27-.115.765.294,1.169.466,1.508-2.235,4.446-2.9,7.044-2.348,1.428.3,3.139-.605,4.692-1.068s3.095-1.058,4.706-1.617L89.539,36.8c.461-.075,1.12-.383,1.351-.187,1.337,1.137,2.278.2,3.562-.226,4.062-1.355,8.292-2.2,12.381-3.483,2.245-.7,4.692-1.238,6.106-3.562a2.513,2.513,0,0,1,1.277-.836c1.1.508,1.8,1.142,2.365,1.039,2.3-.416,4.537-1.185,6.839-1.588,3.4-.6,6.852-.881,10.242-1.512a52.236,52.236,0,0,0,5.732-1.712l-2.113-1.566,6.4-1.391.339.722-1.861,1.284c2.206,1.054,3.372.465,4.412-2.511l1.588,2.8,1.4-3.17L157.5,19.33V22.1l.407.123,1.265-3.077c4.05,2.737,4.438,2.707,5.866-.525l7.044,1.36.254-.694L170,17.695l14.853-1.635-.03-.937c-2.7.657-5.194-2.032-7.986-.026a1.014,1.014,0,0,1-.789.043c-4.484-1.506-9.071-.266-13.6-.41-5.543-.176-11.108.5-16.668.615-2.256.045-4.532-.7-6.782-.622-5.173.19-10.332.753-15.5,1.007-5.59.275-11.2.2-16.781.589-6.868.481-13.71,1.321-20.569,1.942-5.131.465-10.277.766-15.4,1.26-5.007.482-10.011,1.037-15,1.7C49.92,22,44.111,22.922,38.3,23.811c-6.1.932-12.186,1.937-18.289,2.845-5.953.886-11.916,1.707-17.881,2.509A2.522,2.522,0,0,1,0,28.376l2.187-.4c-.473-1.745.586-3.142,2.639-3.062a23.815,23.815,0,0,0,11.636-2.391c1.547-.753,3.585-.43,5.291-.952a11.68,11.68,0,0,0,2.986-2.017c.122-.087.139-.37.254-.408,1.934-.626,3.846-1.373,5.825-1.8q5.546-1.212,11.162-2.094c1.408-.224,2.924.178,4.314-.1,3.808-.749,7.558-1.8,11.368-2.536,1.5-.292,3.125.066,4.661-.13,9.431-1.2,18.845-2.539,28.281-3.7,4.348-.533,8.747-.642,13.1-1.158,4.664-.553,9.3-1.357,13.969-2.056l-.248.312a32.209,32.209,0,0,1,6.136-.674c4.784.319,9.388-1.184,14.132-1.088.542.011,1.094-.464,1.641-.713q-.044-.4-.088-.8L110.107,4.13l-.122-1.008c3.005-.433,6.022-1.266,9.013-1.182a28.258,28.258,0,0,0,8.147-.6c2.576-.668,5.374-.5,8.077-.648,3.88-.21,7.762-.437,11.645-.511a22.725,22.725,0,0,1,3.252.7,12.56,12.56,0,0,0,1.9-.212c2.029-.053,4.059-.06,6.093-.08-3.29,2-6.945,1.489-10.53,1.578-2.029.05-4.053.337-6.289.535l1.25,2.3c1.715-1.654,6.585-1.964,8.55-.666a5.756,5.756,0,0,0,1.529.479c-.044-.476-.087-.951-.19-2.07l.964,1.679a27.739,27.739,0,0,1,2.684-.91c1.076-.239,2.179-.352,3.452-.547Zm2.875,2.2-.164.936c3.292,0,6.583.017,9.875,0,3.465-.022,7.009-.7,10.212,1.3,3.205-2.425,6.659-.245,9.989-.485,3.794-.273,7.622-.063,11.436-.063q0-.719,0-1.438c-1.766,0-3.532-.022-5.3.005-2.415.038-4.7-1.378-7.23-.539-.466.154-1.28-.739-1.525-.894-3.155.249-6.055.492-8.957.7-2.53.184-5.22-1.987-7.628.518-.117.121-.786-.253-1.177-.439-.991-.471-2.041-1.476-2.94-1.352A50.956,50.956,0,0,0,160.914,2.714Zm-53.9,6.742q-.053-.468-.107-.936L80.662,11.353q.046.4.091.809Zm153.57,1.755-.09.692,17.911,2.034.071-.631Zm-207.3,3.7.114.766,11.885-1.694q-.05-.353-.1-.707Zm-3.923,1.62-.054-.777-10.643,1.47q.048.343.1.686Z" transform="translate(0 15.546) rotate(-3)" fill="#ffd200"/>
</svg>