<svg xmlns="http://www.w3.org/2000/svg" width="69.519" height="74.43" viewBox="0 0 69.519 74.43">
  <path id="Brand_Doodle_Arrow-21" data-name="Brand Doodle_Arrow-21" d="M53.623,46.632a3.5,3.5,0,0,1-2.477,1.157c-.325-.014-.651.4-1,.443a14.572,14.572,0,0,1-1.862.021l.626.795c-.556-.177-.779.92-1.475.191-.326-.341-.959-.41-1.239-.769a44.36,44.36,0,0,1-2.619-3.718c-.831-1.329-1.6-2.7-2.295-4.11-.775-1.57-1.415-3.207-2.15-4.8-.814-1.761-1.677-3.5-2.505-5.255-.657-1.393-1.333-2.779-1.931-4.2q-.987-2.341-1.841-4.738c-.758-2.111-1.472-4.238-2.179-6.366a2.108,2.108,0,0,1,.979-2.36c.19-.1.476-.015.7-.015-.355-.965-.53-1.986.62-2.784.2-.14.143-.614.292-.886.129-.235.367-.533.586-.558s.523.227.657.44c.709,1.131,1.36,2.3,2.061,3.435.686,1.113,1.49,2.16,2.1,3.313,1.428,2.715,2.763,5.479,4.149,8.217.6,1.194,1.271,2.358,1.855,3.562q1.926,3.973,3.793,7.975c.908,1.939,1.765,3.9,2.671,5.841C51.929,43.161,52.757,44.836,53.623,46.632ZM62.4,3.158c-.433.317-.531,1.136-.707,1.749-.167.583-.18,1.212-.362,1.789-.327,1.036-.733,2.046-1.1,3.07-.176.49-.306,1-.524,1.469-.112.242-.573.5-.528.61.44,1.051-1.091,1.6-.631,2.624-.974.187-.457.813-.428,1.329.01.172-.251.358-.388.538l.281.074a20.639,20.639,0,0,0-.722,2.164,5.317,5.317,0,0,1-.9,2.184c.206.292.422.465.394.581a3.62,3.62,0,0,1-.56,1.689,1.6,1.6,0,0,0-.429,1.094c-.064.37-.42.687-.5,1.058-.448,2.112-.884,4.227-1.26,6.352-.391,2.207-.722,4.426-1.043,6.644-.035.244.164.521.284.872-.591.877-.509,5.236.225,5.551l.514-.433c.6.541,1.1,1.306,1.962.191.272-.352.691-.555.727-1.095a.738.738,0,0,1,.277-.544c.628-.307,1.286-.551,2-.845a2.8,2.8,0,0,0-.2,1.008,2.926,2.926,0,0,0,.539.946l.387-.092c.464-1.219,1.03-2.41,1.37-3.663.658-2.426,1.2-4.885,1.771-7.334.6-2.542,1.191-5.085,1.748-7.635.243-1.113.365-2.252.593-3.368.143-.7.406-1.374.568-2.071.189-.812.265-1.654.5-2.452.581-1.993,1.266-3.956,1.825-5.954.415-1.484.714-3,1.029-4.511a5.7,5.7,0,0,0,.011-1.14l-.281-.041a5.387,5.387,0,0,0-.357.736c-.462,1.469-.918,2.94-1.354,4.417-.6,2.035-1.2,4.072-1.766,6.116-.4,1.429-.737,2.875-1.115,4.31-.2.765-.411,1.53-.663,2.279-.038.112-.329.138-.744.294,0-.954-.036-1.712.016-2.464a7.141,7.141,0,0,1,.331-1.04c.307-1.3.553-2.626.9-3.92.385-1.436.85-2.852,1.292-4.273.413-1.331.868-2.651,1.255-3.99.333-1.151.613-2.319.874-3.489a2.046,2.046,0,0,0-.143-.76L67,3.745,65.942,6.03l-.23-.083q.092-.649.184-1.3a1.415,1.415,0,0,0-.5-1.605,1.2,1.2,0,0,1-.381-1.071A1.393,1.393,0,0,0,64.266,0C63.411.9,63.525,2.335,62.4,3.158Zm.109,20.913.328.026-.269,2.715-.371.005ZM37.769,59.181a1.242,1.242,0,0,0-1.26-1.506,4.629,4.629,0,0,1-1.159-.133c-1.661-.473-3.313-.977-4.966-1.475-.488-.147-.978-.291-1.455-.468-1.138-.421-2.251-.922-3.408-1.278-1.594-.49-3.221-.87-4.831-1.306-2.163-.585-4.312-1.224-6.489-1.754-1.438-.35-2.939-.452-4.366-.836a30.988,30.988,0,0,0-7.9-.737c-.678-.006-.954.276-1.065.951A3.234,3.234,0,0,1,.215,52.03c-.273.35-.332,1.182.095,1.335,1.044.374,2.105.705,3.174,1,1.916.533,3.855.986,5.76,1.554,1.73.516,3.423,1.156,5.14,1.716q4.613,1.5,9.237,2.976c.665.213,1.338.4,2.007.6,1.686.507,3.353,1.09,5.062,1.5a41.617,41.617,0,0,0,4.555.766c1.572.2,3.166.546,5-.212-.358-.323-.564-.628-.844-.731a5.643,5.643,0,0,0-1.317-.128c.555-.4,1.487-.479.9-1.286-.153-.211-.676-.155-1.227-.258A12.938,12.938,0,0,1,37.769,59.181Zm4.767-9.715A14.592,14.592,0,0,0,41.1,47.551q-3.406-3.774-6.862-7.5c-1.18-1.28-2.362-2.56-3.587-3.8q-3.272-3.3-6.6-6.549t-6.678-6.473c-.654-.629-1.255-1.639-2.305-.484-.037.041-.263-.118-.333-.074a7.559,7.559,0,0,0-1.538,1.064c-.13.135.087.752.295,1.04,1.242,1.729,2.466,3.476,3.813,5.122,1.661,2.031,3.411,3.992,5.169,5.941,1.743,1.931,3.566,3.789,5.313,5.717,1.218,1.345,2.335,2.78,3.558,4.12.522.572,1.246.956,1.8,1.508q1.8,1.806,3.508,3.7c.91,1.007,1.757,2.069,2.632,3.107l.336-.564,2.3.323c.469-.472.467-1.013-.272-2.107C43.273,51.322,43.45,50.894,42.537,49.466ZM21.694,28.886c2.127,2.184,4.314,4.31,6.451,6.485,1.329,1.353,2.616,2.748,3.9,4.147a6.169,6.169,0,0,1,.634,1.037l-.252.205c-.278-.317-.545-.645-.835-.95-1.523-1.6-3.025-3.228-4.586-4.793s-3.211-3.1-4.821-4.644L20.3,28.566c-.767-.851-1.524-1.711-2.3-2.551-.515-.555-1.09-1.058-1.58-1.633a2.863,2.863,0,0,1-.339-.885l.208-.128c.535.515,1.088,1.012,1.6,1.548.775.809,1.564,1.611,2.255,2.488.208.264.109.77.151,1.165C20.852,28.263,21.245,28.425,21.694,28.886Z" transform="matrix(-0.087, -0.996, 0.996, -0.087, 6.025, 74.43)" fill="#7d2ae8"/>
</svg>