<svg xmlns="http://www.w3.org/2000/svg" width="215.697" height="137.573" viewBox="0 0 215.697 137.573"><path d="M64.657,75.334a25.478,25.478,0,0,1-3.064-3.37c-1.059-1.662-2.626-2.839-3.768-4.413-.424-.584-.969-1.609-2.194-1.21a8.326,8.326,0,0,0,1.839,2.642c.938.8,1.818,1.672,2.85,2.631-.2.408-.025.924.742,1.236.178.072.243.4.378.6.636.941,1.312,1.857,1.9,2.826.247.405.241.966.492,1.367a11.309,11.309,0,0,0,1.06,1.138,6.018,6.018,0,0,1,.507.849l.948-.172c-.012.193.021.328-.031.4a3.557,3.557,0,0,0-.426,3.183,7.076,7.076,0,0,1-.078,2.931c-.088.421-.779.707-1.177,1.075-.681.627-1.347,1.271-2.044,1.93-.447-.412-.832-1-1.871-.739-.672.17-1.54-.47-2.328-.718-.67-.211-1.369-.339-2.025-.585a6.013,6.013,0,0,1-1.984-.947c-1.484-1.362-3.518-1.664-5.087-2.776a23.9,23.9,0,0,1-4.506-3.856c-1.126-1.33-2.414-2.533-3.432-3.922A43.635,43.635,0,0,1,37.55,69.2a36.5,36.5,0,0,1-2.005-5.556c-.563-1.813-.981-3.671-1.484-5.5a.867.867,0,0,0-.39-.445c-2.475-1.44-4.934-2.909-7.445-4.285-2.559-1.4-5.194-2.667-7.753-4.068-2.642-1.447-5.292-2.895-7.832-4.509-2.632-1.674-5.194-3.474-7.674-5.365A9.055,9.055,0,0,1,.034,35.476.709.709,0,0,1,.28,34.73l1.136,1.917c-.09-1.227-.163-2.238-.231-3.166.539-.2.987-.388,1.452-.516a1.109,1.109,0,0,1,.575.071c-.005,1.026.967.777,1.457,1.142a5.919,5.919,0,0,1,1.509,1.488c-.785-.242-1.566-.5-2.36-.712a.844.844,0,0,0-.632.127c-.083.06-.058.387.023.537a6.439,6.439,0,0,0,1.252,2.093,22.478,22.478,0,0,0,3.264,1.85c.978.533,1.968,1.047,2.937,1.6,1.71.97,3.375,2.026,5.118,2.93,3.458,1.793,6.954,3.511,10.439,5.252,2.187,1.093,4.375,2.186,6.58,3.243a3.126,3.126,0,0,0,1.045.1c-.173-.3-.349-.6-.517-.906-.1-.174-.18-.354-.27-.53l-.034.035.805-.209c.444-3.421.7-6.709,1.338-9.919a49.03,49.03,0,0,1,2.446-8.419,10.534,10.534,0,0,1,3.559-5.069,11.25,11.25,0,0,1,2.569-.873,5.749,5.749,0,0,0,1.2-.6c.693-.452,1.323-1.007,2.039-1.414.787-.447,1.663-.735,2.453-1.179.226-.127.285-.552.483-.97a12.691,12.691,0,0,1,2.731.038,8.463,8.463,0,0,1,3.709,1.346A6.771,6.771,0,0,0,58.768,25.4a3.448,3.448,0,0,1,1.21,1.027c.991,1.083,2.722,1.335,3.245,2.985.111.351.783.518,1.188.784.621.407,1.185.755,1.135,1.729-.018.354.843.989,1.378,1.086,1.085.2,1.031.627.537,1.346a4.056,4.056,0,0,1,3.092,3.2c1.089-.022,1.033-1.044,1.284-1.635.753-1.767,1.232-3.656,2.053-5.387.87-1.834,2-3.547,3.033-5.3,1.181-2,2.261-4.075,3.618-5.948a31.837,31.837,0,0,1,3.889-4.2,43.55,43.55,0,0,1,3.829-3.141,5.419,5.419,0,0,1,1.543-.49c.146-.372.09-1.2,1.208-1.058.489.063,1.05-.436,1.627-.7l-.5-.228c.278-.173.531-.318.771-.483a3.106,3.106,0,0,1,2.712-.636c.474.121,1.1-.307,1.646-.522a9.01,9.01,0,0,1,5.294-.5c2.517.442,3.791,2.152,4.386,4.382a60.166,60.166,0,0,1,1.725,8.162,52.557,52.557,0,0,1-.073,6.458c0,.864.171,1.726.223,2.592.092,1.511.153,3.024.226,4.514.463-.544,1-1.177,1.538-1.8,2.008-2.331,3.989-4.687,6.043-6.977.783-.873,1.921-1.48,2.7-2.238a37.423,37.423,0,0,1,3.263-2.318c1.15-.92,2.46-1.64,3.6-2.574.883-.725,2.049-.926,2.825-1.951.517-.683,1.72-.878,2.644-1.214,1.059-.385,1.925-1.2,3.218-1.107a9.164,9.164,0,0,0,2.6-.577c.4-.1.807-.2,1.215-.281a5.365,5.365,0,0,1,1.456-.217,25.2,25.2,0,0,1,3.666.542,21.851,21.851,0,0,1,3.715,1.3c.455.206.711.84,1.072,1.266a2.28,2.28,0,0,0,.459.4c.1.069.314.049.349.127a11.267,11.267,0,0,1,1.209,2.948,31.252,31.252,0,0,1,.074,5.136c-.086,2.046-.249,4.093-.48,6.129-.206,1.813-.554,3.61-.83,5.415-.046.3-.047.61-.069.915l.271.2c1.359-1.383,2.724-2.76,4.076-4.15,1.825-1.876,3.609-3.794,5.468-5.635,1.4-1.391,2.872-2.722,4.368-4.015.763-.659,2.04-1,2.4-1.792.705-1.56,2.215-2.093,3.275-3.157a70.033,70.033,0,0,1,5.611-4.729c1.179-.957,2.377-1.893,3.611-2.777,1.78-1.274,3.593-2.5,5.4-3.732,1.646-1.117,3.294-2.233,4.971-3.3.513-.327,1.124-.5,1.694-.833.5-.162,1.155-.185,1.467-.523.4-.429.685-.864,1.32-.71a4.594,4.594,0,0,1,.9.457L194.487.4c.265.321.54.88.742.855a4.761,4.761,0,0,0,1.708-.712,10.79,10.79,0,0,1,1.2-.461,2.232,2.232,0,0,1,.988-.054c.151.031.386.41.336.514a2.055,2.055,0,0,1-.6.677c-1.086.85-2.2,1.668-3.265,2.541-.09.074.082.466.184.967l.312-.928c.733.8,1.482,1.561,2.157,2.385a.93.93,0,0,1,.061.878c-.676.878-1.41,1.714-2.169,2.522-.287.305-.7.5-1.016.82-.313.223-.622.451-.942.664-.052.035-.2-.027-.219,0-.646,1.178-1.857,1.8-2.788,2.81L190.5,13.4c-.3.819-.362,1.949-1.511,1.306a11.383,11.383,0,0,1-1.526,2.094c-1.269,1.1-2.933,1.833-3.943,3.107-1.236,1.559-3.411,1.949-4.3,3.84-.132.281-.766.325-1.186.486.139,1.073.072,1.125-1.2.808-.072,1.121-.38,1.958-1.783,2-.441.012-.865.68-1.366,1.107l.561.457-1.593.526c.252.681-.108,1.25-1.006,1.8-.754.462-1.221,1.376-1.871,2.034-.2.2-.582.208-.873.3a4.891,4.891,0,0,1-.687,1.291,21.818,21.818,0,0,1-2.864,2.426c-.3.548.079,1.672-1.251,1.437a3.3,3.3,0,0,1-.12.662c-.308.772-.675,1.458-1.468.831a10.02,10.02,0,0,1-.8,1.617,12.935,12.935,0,0,1-2.6,3.143c-1.243.863-1.718,2.4-3.152,3.056-.514.236-.753,1.072-1.147,1.678l-.774-.461c-.418,2.127-2.063,3.145-3.726,4.7-.2.917-2.361,2.568-3.89,2.58-.106,0-.293.014-.307.061-.34,1.147-1.316.584-1.664.334-.476-.342-.634-1.127-.93-1.721a.925.925,0,0,0-.11-.127l-2.3-.3a2.2,2.2,0,0,0-2.155-2.069l-.333.517a9.135,9.135,0,0,1-2.814-1.046,3.419,3.419,0,0,1-1.187-2.407c.1-2.175.535-4.335.848-6.5.179-1.236.343-2.477.579-3.7.38-1.973.861-3.927,1.209-5.9.289-1.642.475-3.3.652-4.963a9.09,9.09,0,0,0-.018-2.18c-.03-.218-.613-.6-.767-.525-1.615.753-3.181,1.609-4.788,2.382-1.219.587-1.884,1.8-2.987,2.513-.638.411-1.482.657-1.453,1.685,0,.085-.463.184-.6.236-.9,1.155-1.781,2.285-2.669,3.405a17.709,17.709,0,0,1-2.163,2.619c-1.223,1.04-1.624,2.737-3.107,3.572-.5.284-.746,1.042-1.093,1.593-.079.126-.051.384-.144.428-1.494.713-1.761,2.366-2.658,3.53a21.569,21.569,0,0,0-2.293,4.136c-1.052,2.265-2.049,4.559-2.967,6.882A49.341,49.341,0,0,0,107.624,69.6c-.179,1.192-.3,2.393-.492,3.583-.111.7-.151,1.346-1.088,1.7-.557.212-.827,1.178-1.3,1.921-.345-.935-.623-1.7-.92-2.467-.031-.08-.223-.182-.263-.156a.98.98,0,0,0-.309.338c-.179.322-.335.658-.627,1.241l-.46-1.623-3.143-.864L99.4,71.82l-1.33.43-.489-.812c-.145.019-.254,0-.286.041-.339.438-.7,1.284-.991,1.262-1.344-.1-2.9-1.422-2.874-2.436.04-1.886.271-3.767.383-5.653.033-.564-.081-1.136-.1-1.7a13.567,13.567,0,0,1-.012-3.7c.447-1.7-.24-3.483.29-4.971.519-1.458-.342-2.681.07-4.048a23.772,23.772,0,0,0,.678-4.5c.067-.667-.173-1.362-.134-2.036.107-1.85.232-3.7.454-5.542.338-2.8.014-5.595.15-8.389a37.871,37.871,0,0,0-.678-8.1l-.643,1.177c-.8.155-1.712.238-1.464,1.611.051.282-.6.692-.868,1.062-.324.485-.659.964-.971,1.457-.408.646-.788,1.308-1.2,1.953-.348.549-.733,1.075-1.075,1.628-.164.265-.253.575-.4.853a14.268,14.268,0,0,1-1.9,3.412c-.819.843.014,1.886-.736,2.572-.225.206-.446.416-.786.735.359.534.355,1.115-.346,1.239-.292,1.176-.514,2.232-.821,3.263-.439,1.473-1.063,2.9-1.386,4.4a39.577,39.577,0,0,0-.8,5.622,5.547,5.547,0,0,0,.784,3.6c.293.436,1.083.874.493,1.683-.088.12.272.567.424.863L83.1,58.4a60.479,60.479,0,0,1,3.959,12.736,2.755,2.755,0,0,1,.6,2.97A7.331,7.331,0,0,1,86.742,76c-.857,1.215-.145,2.44-.087,3.641.049,1.021.457,2.019.605,3.041.2,1.372-.524,2.372-1.636,2.407.506.733.237,1.346-.736,1.679V85.38l-1.405.654.193.738c-.974.544-.974.544-1.7-.871l.6-.792L79.93,84.28c-.333-.068-.289-.981-1.154-.173-.122.114-.639-.044-.86-.219a8.569,8.569,0,0,1-1-1.128c-1.435,1-2.4-.183-3.609-1.072l.4,1.194c-.349-.318-.676-.494-.815-.765-.662-1.288-1.3-2.59-1.9-3.912a17.343,17.343,0,0,1-1.8-7.153c0-.787-.556-1.563-.623-2.363-.229-2.719-.311-5.45-.542-8.169a8.377,8.377,0,0,0-.69-2.8c-.866-1.846-1.881-3.623-2.863-5.413a37.741,37.741,0,0,0-3.063-5.293c-.8-1.021-1.279-2.215-2.189-3.2a65.418,65.418,0,0,1-4.039-5.468c-.245-.327-.726-.471-1.082-.724-.2-.14-.469-.3-.517-.5a2.549,2.549,0,0,0-2.215-2.249c-.053-.007-.091-.137-.133-.211-.932-1.643-2.21-1.8-3.038-.138a49.234,49.234,0,0,0-2.624,6.688,29.5,29.5,0,0,0-1.009,8.6c-.055,2.364-.248,4.707.687,6.956a2.062,2.062,0,0,0,.482.7c.932.87,1.882,1.72,2.832,2.57a.742.742,0,0,0,.376.212c1.651.136,2.669,1.252,3.738,2.328.223.225.858.122.983.347A3.89,3.89,0,0,0,55.7,64.565c.268.119.419.5.751.66.233.31-.148,1.1.934.735.183-.062,1.553.328,1.091,1.456-.017.042.148.214.251.241,1.68.438,2.215,1.993,3.247,3.091a24,24,0,0,1,2.182,2.586,5.772,5.772,0,0,1,.488,2.026Zm-15.142-4.8a4.928,4.928,0,0,0-.446-1.578c-.2-.293-.789-.32-1.2-.466l.115,1.349.911-.634-.21,1.918.864-.629a17.6,17.6,0,0,0,.294,1.942c.059.229.4.387.61.577l.107-.185.851,1.676.168-.049V73.59l2.235,1.934.277-.28-3.333-3.9-.525.285.126-1.208C50.074,70.463,49.793,70.5,49.515,70.538ZM52.9,64.049c-.055.205-.224.512-.146.6.685.773,1.414,1.507,2.352,2.484a7.418,7.418,0,0,0-.017-1.58c-.3-1.1-1.323-1.213-2.213-1.485.593-.65.036-.714-.423-.851a3.065,3.065,0,0,1-.961-.369c-.737-.551-1.426-1.165-2.139-1.748a16.283,16.283,0,0,0-1.493-1.178,17.912,17.912,0,0,0-1.7-.86l-.194.266c.458.756.684,1.673,1.739,1.988a9.142,9.142,0,0,1,1.784.729c.165.091.154.5.217.746,1.285-.648,1.227.488,1.424,1ZM68.783,37.995c-1.041-1.275-1.765-2.775-3.054-3.889-1.072-.927-1.906-2.122-2.888-3.159-.7-.74-1.468-1.416-2.21-2.115a1.078,1.078,0,0,0-.274-.163c-.683,1.038-.668-.6-1.25-.34-.205.091-.659-.376-1.149-.682.011-1.627-3.66-3.775-6.551-3.519l-.164.844,2.07.591c-.051.907.707.631,1.385.433.005.956,0,.948,1.014.794a.454.454,0,0,1,.385.173A2.8,2.8,0,0,0,58.351,28.8l.111,1.13.566-.752a5.394,5.394,0,0,0,.541,1.387,20.97,20.97,0,0,0,1.568,1.605c1.176,1.227,2.324,2.48,3.525,3.681.207.207.523.879.957.154l.221.144-.422.782c.926-.053,1.6.173,1.91,1.04l-.652-.052-.239.211,1.151,1.316c.651.745,1.292,1.5,1.973,2.214.045.048.585-.261.575-.29-.2-.555.311-1.319-.516-1.711-.151-.071-.133-.5-.194-.759l.251-.059ZM19.7,47.261l.167-.29c-.713-.9-7.15-4.095-8.027-3.847Zm5.851,3.051.2-.314a22.936,22.936,0,0,0-5.06-2.834c-.171-.084-.436.024-.657.043l-.021.226Zm79.906-37.618c-.218-.368-.3-.662-.5-.813a14.385,14.385,0,0,0-1.316-.823c-.1.354-.205.71-.315,1.062-.046.149-.115.291-.167.438-.067.187-.128.377-.192.566.214.028.554.153.621.067a12.441,12.441,0,0,0,.8-1.312l.286,1.134ZM82.56,63.813c-.513.794.058,2.276,1.445,2.892a11.748,11.748,0,0,0-.366-2.246C83.532,64.161,82.952,64.033,82.56,63.813Zm-54.2-12.7-.226.365,3.3,1.943.2-.312C30.875,51.925,29.382,51.879,28.359,51.111ZM105.82,14.065l-1.7.9,1.7,1.122ZM30.134,49.885c-1.114-.631-2.224-1.271-3.352-1.876-.105-.056-.334.118-.54.2,1.075.571,1.855,1.03,2.675,1.4a5.363,5.363,0,0,0,1.251.242ZM64.659,75.331c-.193.877.046,1.481,1.218,1.7-.2-.674-.34-1.226-.55-1.75-.023-.056-.446.048-.684.078Zm-34.49-25.48c.656,1.1,1.77,1.255,2.888,1.4l-.035.036q-1.445-.7-2.887-1.4Z" transform="matrix(0.966, -0.259, 0.259, 0.966, 0, 51.629)" fill="#d269e6"/></svg>