<svg xmlns="http://www.w3.org/2000/svg" width="204.29" height="113.692" viewBox="0 0 204.29 113.692">
  <path id="Path_15" data-name="Path 15" d="M15.426,90.552c.411-.479.836-.948,1.229-1.441.55-.69,1.076-1.4,1.613-2.1.271-.354.557-.7.8-1.069a1.045,1.045,0,0,0,.093-.411c1.013-.664,1.479-1.763,2.3-2.552l-.191-.229-1.286.877-.257-.17c.589-.684,1.206-1.345,1.756-2.059.39-.506.434-.115.573.149l-.548.132.106,1.015,2.628-2.907c-.213.032-.466-.008-.567.1a.912.912,0,0,1-1.1.279c0-.031-.005-.094.017-.109a8.6,8.6,0,0,0,1.757-2.026c.288-.368.733-.613,1.024-.979.594-.747,1.392-1.277,2-2.022a29.613,29.613,0,0,1,2.3-2.3,4.044,4.044,0,0,1,.522-.511,4.51,4.51,0,0,1,.726-.322l-.129-.262c.666-.631,1.3-1.262,1.968-1.851a3.359,3.359,0,0,1,1.023-.644c.3-.109.31-.034.225.3a1.91,1.91,0,0,0,.028.511,3.562,3.562,0,0,1,.376-.3,2.459,2.459,0,0,1,.421-.135c-.219-.2-.366-.341-.521-.472-.313-.264-.266-.445.092-.631a4.291,4.291,0,0,0,.644-.494c.626-.5,1.256-1,1.875-1.5.257-.211.472-.475.738-.671,1.5-1.107,3-2.213,4.52-3.294a12.682,12.682,0,0,1,1.687-1.006c.293-.146.631-.181.795-.524a.257.257,0,0,1,.235-.086c.431.165.544-.123.653-.432.018-.05.039-.123.078-.139.182-.073.554.42.579-.216,0-.1.4-.226.636-.275.333-.07.814.227.988-.148.206-.44.576-.559.916-.767a.524.524,0,0,1,.3-.116c1.087.19,1.978-.5,2.991-.661,1.092-.176,2.153-.637,3.244-.7.626-.037,1.34-.033,1.927-.111.884-.118,1.66.678,2.506.142.014-.009.052-.01.054,0,.318.723.955.6,1.566.652.238.019.642.229.408.87l-.171-.487c-.119.114-.169.147-.164.16.087.231.181.46.244.619.327-.15.7-.41.777-.342a8.227,8.227,0,0,1,1.053,1.23c.057.077-.058.281-.115.513l.5.4c-.11.39-.416.842.2,1.148.085.042.059.406.01.6-.15.61.285,1.152.165,1.763-.086.439-.079.9-.133,1.343-.009.077-.116.142-.183.217l.377.2-.519.144L63.5,69.548l.492.259-.638.523c.077.173.24.364.23.546a4.488,4.488,0,0,1-.531,2.552c-.092.129.086.423.061.631-.1.812-.232,1.62-.343,2.43a1.728,1.728,0,0,0,.075.406c.371-.284.691-.511.99-.761.663-.555,1.326-1.111,1.969-1.689.342-.308.642-.662.956-1,.083-.089.132-.211.219-.293.67-.627,1.329-1.268,2.027-1.863a17.231,17.231,0,0,1,1.462-1.051c.062-.042.178-.006.1-.006a5.13,5.13,0,0,1,.561-1.144c.449-.518,1.008-.94,1.481-1.44.225-.237.314-.6.542-.835.368-.373.8-.677,1.2-1.022.09-.078.206-.21.2-.306-.049-.5.256-.772.6-1.038a2.044,2.044,0,0,0,.315-.4l.29.2-.12-.406,3.337-4.461v.453c-.019-.633.5-.831.974-1.068l-.116-.119-.4.237.455-.7.2.264a2.982,2.982,0,0,1,.185-.393c.407-.608.8-1.225,1.244-1.809a3.306,3.306,0,0,1,.676-.521c-.163-.352.4-1.03.877-1.1.4-.512.676-.91,1-1.263.571-.624,1.163-1.23,1.765-1.825.151-.149.227-.532.605-.275.055.038.373-.14.372-.216-.01-.935.823-1.212,1.329-1.735A14.035,14.035,0,0,1,89.3,48.255c.135-.111.359-.114.5-.225.1-.085.1-.293.2-.392.4-.4.809-.785,1.234-1.153.579-.5,1.171-.985,1.766-1.466.994-.8,1.965-1.642,3-2.388.683-.492,1.467-.841,2.194-1.274.109-.065.134-.258.232-.357a3.5,3.5,0,0,1,1.646-.907,5.111,5.111,0,0,0,1.134-.653c.643-.378,1.272-.786,1.938-1.12.784-.394,1.593-.743,2.406-1.076.7-.289,1.428-.526,2.143-.79.382-.141.752-.321,1.144-.424a5.511,5.511,0,0,0,1.393-.3c.474-.286,1.009-.178,1.51-.5a5.423,5.423,0,0,1,2.244-.5c1.321-.153,2.653-.212,3.975-.356s2.633-.617,3.975-.122c.77-.352,1.432.513,2.032.2l.742.871.246-.566.441,1.163c.1-.044.242-.16.377-.153.8.037.964.786,1.535,1.318l-1.153.144.036.216h1.328c-.285.466-.351.811.207,1,.065.022-.007.394.017.6.143,1.18.365,2.356.417,3.539a11.08,11.08,0,0,1-.346,1.938c-.028.193.182.418.159.614-.171,1.46-.383,2.915-.56,4.375a3.563,3.563,0,0,0,.007,1.118c.047.231.263.568.443.6a1.108,1.108,0,0,0,.72-.338c.245-.212.4-.52.637-.749.112-.11.338-.1.461-.2a12.107,12.107,0,0,0,.952-.9c.951-1,1.9-2,2.833-3.018.552-.6,1.064-1.243,1.607-1.855.183-.207.414-.37.606-.569.212-.221.62-.563.568-.675-.227-.482.335-.375.4-.633.039-.157.3-.258.566-.461.573.033.25-.755.6-1.011l.112.125a2.576,2.576,0,0,1,.417-.37c.659-.371.475-1.334,1.321-1.676.533-.215.842-.962,1.281-1.444.374-.411.787-.787,1.189-1.171.757-.724,1.509-1.451,2.282-2.157.237-.216.542-.355.8-.55s.478-.428.737-.615c.967-.7,1.953-1.373,2.914-2.079,1.179-.867,2.334-1.768,3.515-2.632.577-.423,1.2-.777,1.785-1.2.616-.445,1.19-.947,1.805-1.392.733-.531,1.488-1.033,2.238-1.541,1.278-.865,2.545-1.748,3.846-2.577,1.359-.867,2.754-1.677,4.13-2.518.2-.125.375-.305.583-.42.533-.293,1.083-.554,1.616-.847.441-.242.857-.53,1.3-.762q2.125-1.1,4.265-2.179c1.353-.683,2.706-1.366,4.07-2.028.7-.341,1.427-.632,2.139-.952.945-.425,1.878-.877,2.834-1.277.657-.275,1.353-.456,2.012-.727,1.076-.442,2.124-.951,3.206-1.374.571-.223,1.191-.316,1.784-.483.094-.026.166-.132.361-.3-1.809.231-3.464.345-5.069.691-.771.166-1.5.024-2.238.129-.45.064-.851.27-1.331.016-.141-.075-.475.214-.589.27a4.957,4.957,0,0,0-.937-.138c-1.582.1-3.162.22-4.743.331-1.162.081-2.324.2-3.487.219-.838.014-1.677-.129-2.517-.159-.55-.02-1.1.047-1.655.05-.117,0-.229-.126-.353-.162a1.165,1.165,0,0,0-.456-.066,14.448,14.448,0,0,1-4.226-.122c-.668-.107-1.368,0-2.049-.054-.514-.041-1.016-.217-1.53-.269-.375-.038-.77.1-1.138.038-.826-.129-1.644-.32-2.461-.5a11.252,11.252,0,0,0-1.242-.325c-.546-.057-.694-.375-.745-.835-.01-.089-.1-.17-.135-.233.378-.245.779-.5,1.171-.774a2.185,2.185,0,0,0-.13-.235h.656l-.652-.572a1.966,1.966,0,0,0,.721-1.609l-1.267-.071c1.356-1.282,1.483-1.358,2.25-1.361l.424-.756c-.5.03-1.022.093-1.541.084s-.631-.1-.529-.357c.112-.281.372-.669.612-.7A18.3,18.3,0,0,1,157.63.077c.154,0,.3.2.466.238a10.786,10.786,0,0,0,2.719-.066c.157-.006.314.135.479.185.221.067.427.42.69.013.07-.108.338-.15.5-.124.675.109,1.342.275,2.018.375.219.032.471-.138.686-.1a2.4,2.4,0,0,1,.652.347c.284-.349.734-.277,1.024.231L167.01.93c.408.465.939.056,1.4.194s.9.264,1.355.362c.541.116,1.089.2,1.635.284a.215.215,0,0,0,.177-.11c.115-.406.374-.144.562-.115.289.045.57.14.857.2a4.356,4.356,0,0,0,.755.116c.733.018,1.447.351,2.211.046.229-.091.578.162.879.2A2.007,2.007,0,0,0,177.6,2c1.443.371,2.9.012,4.383.04l-.527.286c.344-.021.529-.026.714-.044a7.421,7.421,0,0,1,1.227-.112,35.169,35.169,0,0,0,3.5.314c.723-.018,1.427-.138,2.181-.091,1.087.067,2.2-.2,3.27-.218l.464.1-.633.962c.2.053.417.049.461.136.163.318.46.313.571.115s.581-.618-.121-.761c-.042-.009-.045-.205-.069-.314-.009-.043-.016-.115-.04-.122a.6.6,0,0,0-.182,0c.069-.072.148-.214.205-.205.872.129.992-.524,1.244-1.107A5.111,5.111,0,0,1,194.971,0c.943.665.372,1.34.143,1.99l.141.054.547-.519c.372.487.934.237,1.478.285l.195.562c.324-.17.609-.337.909-.472a6.113,6.113,0,0,1,.661-.216c.035.176.07.352.107.527.079.375.159.75.252,1.187l.914-.742c-.146.95-.273,1.76-.394,2.572-.064.431-.129.862-.171,1.3a9.771,9.771,0,0,0-.3,2.142,5.959,5.959,0,0,1-.446,1.694c-.144.646-.246,1.3-.333,1.959-.121.907-.111.91-.865.609.165-.208.438-.414.507-.675a1.976,1.976,0,0,0-.116-.875c-.014-.06-.164-.114-.255-.122a.218.218,0,0,0-.166.138.35.35,0,0,0,.06.275c.074.069.2.077.14.057-.2.515-.4.978-.563,1.451-.022.062.114.166.146.262.04.119.105.329.06.361-.593.424-.423.951-.233,1.486a2.031,2.031,0,0,0-.214.076c.18.734-.347,1.413-.078,2.2a5.139,5.139,0,0,1-.075,1.83v.118c.025.169.005.456.082.484a2.507,2.507,0,0,0,.752.09.729.729,0,0,0,.24-.078c.017.076.067.164.046.227-.156.461-.327.918-.493,1.375-.47.117-.48.417-.358.811.081.264.116.513.478.314.086.037.225.053.249.115a4.406,4.406,0,0,1,.155.586c-.2.25-.409.508-.616.767-.073.091-.142.185-.214.277l.474-.055-.033.228a1.988,1.988,0,0,1,.537.07.4.4,0,0,1,.173.317.383.383,0,0,1-.188.278c-.386.2-.416.26-.31.64a1.655,1.655,0,0,1,.006.429c.17-.089.323-.228.4-.195a.58.58,0,0,1,.227.346,2.7,2.7,0,0,1,.129.651,2.9,2.9,0,0,1-.051.526,4.739,4.739,0,0,1,.31.692,6.133,6.133,0,0,1,.1.871l-.324.1.121.134.286.091.015.09-.673.1.463,1.653.169-.011q.066-.177.133-.353c.463.228.777,1.193.5,1.535a5.939,5.939,0,0,1,.99,2.76l.54.4-.808.362a2.1,2.1,0,0,1,.546.008c.168.06.4.142.458.278.27.6.466,1.227.74,1.822a5.061,5.061,0,0,0,.527.661.789.789,0,0,1,.084.371c.021.255.026.427.4.449.249.015.48.327.741.522-.579.356-.109.649.022.952a1.6,1.6,0,0,0,.234.309,1.171,1.171,0,0,1-.445-.008,2.565,2.565,0,0,1-.48-.363l-.564.312.141.495-.979.5-.058.182.471.194-.091.148-.527-.1.55.5c-.355.111-.67.22-.99.306a.816.816,0,0,0-.554,1.209.882.882,0,0,1-.575,1.331c-.315.039-.5.392-.96.189A5.323,5.323,0,0,1,197,44.671a16.2,16.2,0,0,1-1.2-1.954c-.456-.875-.841-1.788-1.264-2.681-.014-.03-.131,0-.169-.033-.115-.1-.317-.236-.3-.33.128-.855-.49-1.472-.678-2.224s-.426-1.469-.669-2.193c-.046-.138-.221-.233-.424-.435a3.877,3.877,0,0,0-.007-.687,5.869,5.869,0,0,1-.266-1.486c.171-1.294-.459-2.43-.588-3.659a10.326,10.326,0,0,0-.4-2.143,1.761,1.761,0,0,1-.1-1.4l-.359-.271.275-.228a10.5,10.5,0,0,0-.613-.862c-.064-.075-.253-.044-.552-.085a6.169,6.169,0,0,0,.5-.511c.11-.144.291-.405.245-.467-.18-.239-.4-.426-.1-.719l-.447-.264c.674-.531.628-.927-.361-1.945h.687c.168-2.49.05-5.115.719-7.678l-.2-.107c-1.314.814-2.623,1.635-3.944,2.438-.4.243-.836.426-1.244.658-.677.384-1.341.791-2.017,1.179-1.451.832-2.91,1.651-4.358,2.488-1.5.87-3.04,1.693-4.488,2.648-2.407,1.587-4.793,3.213-7.116,4.92-1.451,1.066-2.764,2.317-4.15,3.472-1.244,1.036-2.51,2.045-3.752,3.083-1.514,1.266-3.033,2.528-4.514,3.832-1.208,1.064-2.4,2.15-3.534,3.292-1.541,1.553-3.025,3.164-4.521,4.762-.391.418-.72.893-1.1,1.319-.211.236-.638.278-.612.736,0,.069-.209.153-.325.225s-.264.1-.321.193c-.29.475-.554.966-.783,1.374l-.7.117.128.643-2.249,1.892.272-.022c-.044.06-.07.129-.1.131-.9.052-1.2.906-1.787,1.37a12.448,12.448,0,0,0-1.194,1.277c-.306.323-.313.323.077.586-.14.24-.852-.2-.7.421a8.674,8.674,0,0,0-.732.609c-.348.355-.64.768-1,1.108a22.722,22.722,0,0,1-2.153,1.9c-.941.684-2.021,1.179-2.937,1.891a9.357,9.357,0,0,1-2.9,1.129,3,3,0,0,1-2.249-.9c-.25-.31-.615-.525-.891-.818s-.477-.6-.713-.908l.12-.144-.425.215a2.852,2.852,0,0,0-.025-.89c-.052-.147-.36-.2-.664-.357l.566-.344-.894-.462c-.2-.288-.32-.642-.533-.714a16.858,16.858,0,0,0-1.9-.433l.182-.438c-.187-.3-.76-.457-.331-.968.015-.018-.149-.175-.217-.277-.244-.363-.755-.836-.663-1.073.16-.409-.168-.365-.241-.529.484-.264.392-.194.093-.569a2.533,2.533,0,0,1-.325-1.234,20.313,20.313,0,0,1,.8-6.649c.171-.8.3-1.61.427-2.418.068-.418-.124-.62-.557-.59-.777.055-1.554.112-2.332.147-.35.016-.759-.139-1.042-.006-.692.326-1.458.216-2.149.483-.6.233-1.217.426-1.821.652-.76.283-1.536.536-2.268.881a45.919,45.919,0,0,0-7.613,4.3c-1.519,1.11-2.959,2.327-4.446,3.481-.616.478-1.284.889-1.887,1.381-.385.314-.678.737-1.038,1.084A21.114,21.114,0,0,0,93.008,55.7c-.939,1.165-2.256,1.928-3.126,3.185a17.768,17.768,0,0,1-2.223,2.1c-.265.265-.345.707-.589,1-.422.511-.924.955-1.358,1.458-.287.332-.507.722-.769,1.077a10.465,10.465,0,0,1-1.788,2.306c-.8.6-.974,1.531-1.669,2.18l-.167-.189c-.033.017-.091.03-.094.052-.095.692-.67,1.035-1.067,1.512-.223.268-.644.463-.491.949.017.054-.1.179-.179.23A3.143,3.143,0,0,0,78.145,73.2a1.909,1.909,0,0,1-.7.729,10.185,10.185,0,0,0-1.363,1.7,13.679,13.679,0,0,1-1.613,1.331,4.069,4.069,0,0,0-.425.466c-.368.418-.7.868-1.106,1.251-1.539,1.469-3.1,2.912-4.643,4.38-.108.1-.1.323-.126.4a2.869,2.869,0,0,0-.549.236c-1.261.914-2.49,1.872-3.776,2.748a1.916,1.916,0,0,1-2.408.139c-.527-.463-1.235-.86-1.453-1.665l-.332.234a1.551,1.551,0,0,0-1.4-1.074c-.021-.362-.042-.723-.064-1.1l-.378.348c-.142-.156-.368-.292-.412-.471a.79.79,0,0,0-.99-.67c.2-.449-.057-.7-.832-.821l.484-.275a7.6,7.6,0,0,1-.613-1.154,8.093,8.093,0,0,1-.276-4.041c.152-.853.147-1.732.27-2.591s.309-1.714.493-2.565a2.892,2.892,0,0,1,.286-.572c.076-.159.235-.358.192-.482-.3-.869.14-1.641.26-2.455.148-1.014.236-2.036.383-3.05.091-.628-.33-.687-.739-.674-.866.027-1.733.087-2.593.19a7.559,7.559,0,0,0-1.028.348,17.06,17.06,0,0,0-4.491,1.936c-.756.468-1.625.752-2.38,1.22-.811.5-1.548,1.124-2.316,1.695-.1.073-.187.163-.289.23A42.635,42.635,0,0,0,39.2,72.113q-2.512,2.113-4.994,4.26c-1.246,1.074-2.5,2.142-3.7,3.26-.813.753-1.553,1.585-2.322,2.386q-1.788,1.862-3.57,3.729c-.767.8-1.555,1.591-2.285,2.428-.537.616-.978,1.315-1.5,1.95-.418.514-.915.964-1.326,1.483-.745.94-1.456,1.907-2.175,2.868-1.426,1.906-2.832,3.828-4.276,5.72q-2.983,3.909-6.014,7.782c-1.1,1.415-2.231,2.809-3.346,4.214-.381.48-.741.979-1.143,1.44a.464.464,0,0,1-.455.007c-.317-.372-.588-.784-.893-1.207l-.437.579-.083-1.024-.116-.056-.418.739c-.046-.076-.177-.194-.155-.271.12-.435.275-.859.421-1.287.026-.078.044-.185.1-.221a3.711,3.711,0,0,1,.571-.284c.021-.009.142.158.137.163a5.227,5.227,0,0,1-.42.374,1.35,1.35,0,0,1-.266.106l.333.845.737-1.521-.806-.209c1.211-1.778,2.54-3.451,3.554-5.3,1.045-1.9,2.321-3.625,3.506-5.42a54.559,54.559,0,0,1,3.613-5.177c.241-.4.531-.83.759-1.288a10.014,10.014,0,0,1,.95-1.289,7.335,7.335,0,0,1,1.439-1.166l-.241.849c.36.21.573.029,1.044-1.031ZM85.1,55.377l.517-.35-.081-.138c-.337.161-.848-.654-1.055.235l-.6.439.216.508-.51-.354-.14.065c.49.752-.154.973-.622,1.313H83.7c.135-.175.258-.46.473-.581.26-.147.53-.2.425-.4ZM190.08,3.271c-.068-.071-.139-.206-.2-.2-.554.026-1.107.105-1.66.107a3.45,3.45,0,0,1-.846-.241,19.947,19.947,0,0,0-3.492.1c-.082-.17-.208-.446-.583-.11a.425.425,0,0,1-.4.053.847.847,0,0,0-1.234.079,3.448,3.448,0,0,0,.23.6.585.585,0,0,0,.356.28c.486.047.977.052,1.467.057,1.186.01,2.373-.02,3.557.027.728.028,1.421-.395,2.19-.055.257.113.646-.228.7-.65l.217.5,1.326-.257.07.189.275-.686-1.984.141ZM58.174,67.407a8.056,8.056,0,0,0-.541.978c-.079.2.054.491-.041.671a9.132,9.132,0,0,0-.8,2.941c-.172,1.1-.438,2.187-.587,3.29-.094.7-.032,1.411-.071,2.116-.024.438.206.435.51.363-.151.147-.44.3-.428.437a11.965,11.965,0,0,0,.288,1.458l.182-.022a4.254,4.254,0,0,1,.152-1.18c.151-.355-.016-.5-.2-.692l.429-.39a.685.685,0,0,1-.055-.157c-.007-.56-.024-1.121,0-1.68,0-.1.23-.17.26-.28a8.138,8.138,0,0,0,.143-.936,6.769,6.769,0,0,1,.007-.759,5.458,5.458,0,0,1,.167-.606c.042-.19-.009-.437.094-.57.455-.583.107-1.346.43-1.9.239-.413-.019-.538-.238-.755l.236.012.093-.71.259-.06c-.046-.231-.082-.4-.114-.569-.062-.337-.122-.674-.183-1.011.653.053.138-.409.255-.609.259-.44-.059-.671-.484-.919C58.016,66.437,57.564,66.989,58.174,67.407Zm116.1-63.974a4.139,4.139,0,0,0,.953.555,4.524,4.524,0,0,0,1.221.064,20.548,20.548,0,0,1,2.345-.017c.766.085,1.5-.381,2.27-.05a1.726,1.726,0,0,0,.688-.02l.089-.183c-.662.062-.969-.35-1.279-.76-.016-.021-.079-.012-.119-.009-.372.034-.745.07-1.1.1.1-.27.117-.454-.334-.357-.88.189-1.793-.183-2.674.128-.032.011-.077-.018-.117-.024a3.92,3.92,0,0,0-2.739.1l-.15-.164h-.73l.232-.359-1.609.28.23-.42c-1.839.194-3.5-.432-5.214-.341l-.91.157.323.955,7.276.732.265-.535.147.074-.11.42.541-.188.364.3ZM130.7,50.724c-.339-.1-.6-.129-.5.357s-.271.552-.592.637c-.141.037-.37-.06-.438.015a2.634,2.634,0,0,0-.5.77.647.647,0,0,0,.158.457,1.564,1.564,0,0,0,.812-.226,11.247,11.247,0,0,0,1.054-1.189c.31-.364.627-.362.886-.092a8.217,8.217,0,0,1,.692-.5c.328-.189.606-.363.215-.743a.784.784,0,0,0,.5-1.229l.536.451.186-.174c-.038-.657-.069-1.194-.1-1.786l-1.425,1.651-.144-.041c-.227.314-.374.741-.614.8C130.933,50.011,130.886,50.383,130.7,50.724Zm28.585-49.4-.26.43-.5-.51L157,1.118l.195.5-.534-.066-.559.9a5.018,5.018,0,0,0,.74-.134c.362-.127.674-.463,1.082,0,.154.173.53.173.81.2a.386.386,0,0,0,.308-.217c.026-.1-.094-.239-.146-.352.494-.1.84.037.729.685h.516V1.83l-.359.028.146-.48ZM79.7,61.567l.343-.188-.111-.248-1.21.366.267.983.2.043ZM36.588,67.13c-.329.313-.536.522-.756.717-.253.225-.513.44-.775.653a1.131,1.131,0,0,1-.211.109c.068.044.132.116.2.126a1,1,0,0,0,1.107-.807l.375.081C36.553,67.7,36.569,67.436,36.588,67.13ZM162.418,1.863a4.666,4.666,0,0,0,.783.552,2.485,2.485,0,0,0,.836.138,2.262,2.262,0,0,0,.152-.524l-.912.063c-.088-.132-.155-.334-.245-.345A2.094,2.094,0,0,0,162.418,1.863Zm-.731-.385-.121.1c.033.228.177.567.079.664-.418.417.228.287.209.472l.739-.162ZM77.514,64.292l-1.489.978c.264.086.51.254.712.213.339-.069.314-.662.777-.646C77.514,64.659,77.514,64.48,77.514,64.292Zm3.039-3.307c.041-.541.072-.955.111-1.484l-.536.345.2.462-.68.3Zm-9.4,9.88-.443.387c.177.038.387.156.523.1a7.008,7.008,0,0,0,.941-.591l-1.306-.235Zm-12.643-6.6-.421-.246.141,1.376c.423-.039.54-.214.33-.6A1.747,1.747,0,0,1,58.509,64.265ZM161.2,1.929,161.13,1.7c-.377.286-.361-.689-.75-.151-.078.107.2.469.307.713Zm36.874,9.236c.2-.251.378-.473.547-.7.03-.041.041-.147.016-.168a.5.5,0,0,0-.193-.062c-.12.392-.477.074-.676.208ZM86.364,54.069l-.031-.237c-.2-.017-.457-.118-.591-.031a2.22,2.22,0,0,0-.461.6l.123.083ZM20.054,89.188l-.173-.116-1.088,1.413.15.116Zm178.01-72.674c.062-.573-.115-1.25.134-1.7a1.891,1.891,0,0,0,.091-1.428,6.414,6.414,0,0,0-.285.93c-.1.337-.253.659-.382.987.433.624-.014,1.09-.3,1.614l.449.233A2.2,2.2,0,0,0,198.064,16.514Zm-1.042,3a.958.958,0,0,1,.357,0c.084.034.138.239.19.233a2.971,2.971,0,0,0,.541-.157c-.06-.157-.124-.314-.18-.473s-.2-.432-.144-.476c.544-.469.262-.9-.013-1.346.07.368-.64.6-.177,1.04-.3.3.094.964-.574,1.058Q197.021,19.457,197.021,19.516Zm.822,3.013c.131-.161.276-.311.416-.464l-.611-.449c-.47.117-.48.417-.358.811.081.264.116.513.478.314A.68.68,0,0,1,197.843,22.529ZM19.562,84.891l-.527-.575-.561.665.925.1Zm-3.719,4.061c.169-.222.342-.442.506-.669a1.6,1.6,0,0,0,.1-.228c.04-.08.086-.157.13-.235-.11-.006-.281-.06-.319-.011-.235.3-.441.629-.656.947Zm-.418,1.6c-.187-.076-.376-.146-.557-.232-.119-.057-.243-.211-.333-.19s-.255.248-.227.3c.069.124.228.28.348.278a3.946,3.946,0,0,0,.775-.157Z" transform="translate(0.005 -0.003)" fill="#ff5055"/>
</svg>