<svg xmlns="http://www.w3.org/2000/svg" width="344.688" height="280.709" viewBox="0 0 344.688 280.709"><path d="M296.319,112.38a3.874,3.874,0,0,1,1.056-.479c.853-.106,1.72-.105,2.582-.149l-.5,2.589-.529.022-.95-1.346a1.532,1.532,0,0,1-.123.2c-1.162,1.487-2.261,3.032-3.517,4.436-.685.765-1.691,1.233-2.456,1.938-2.2,2.032-4.446,4.034-6.5,6.214a35.1,35.1,0,0,0-2.912,4.18q-3.55,5.108-7.118,10.2a83.726,83.726,0,0,0-9.426,17.509,84.7,84.7,0,0,0-4.088,11.542,16.465,16.465,0,0,1-1.98,3.94,16.176,16.176,0,0,1-2.164-.129c-.516-.11-1.4-.346-1.427-.6-.215-2.134-2.406-1.98-3.524-3.369a19.472,19.472,0,0,0-2.32,2.585c-1.631,2.638-2.709,2.732-4.544.225-2.523.482-2.5.484-2.286-2.1.027-.335-.379-.72-.616-1.059-.894-1.274-1.858-2.5-2.654-3.837-.158-.264.312-.9.412-1.161a9.819,9.819,0,0,1-1.587-2.13c-1.026-2.682-1.892-5.426-2.845-8.137a9.009,9.009,0,0,0-.8-1.319l2.056.272c-.39-.462-.648-1.064-.969-1.1-1.826-.2-1.924-1.774-2.766-2.887-1.551-2.051-3.769-3.608-5.759-5.312a10.06,10.06,0,0,0-2.01-.985l1.47-.8c-.443-.613.07-4.915,1-5.469a4.055,4.055,0,0,1,2.971-.1,12.3,12.3,0,0,1,6.686,5.124c1.1,1.671,2.829,2.923,4.273,4.367.605.605.153,2.452,2.075,1.6-2.5-4.025-1.654-8.606-2.142-12.977-.185-1.66-.229-3.337-.3-5.008a4.559,4.559,0,0,0-1.98-3.6c-2.931-2.256-8.339-2.7-11.618-1.211a34.374,34.374,0,0,0-12.636,9.591,33.411,33.411,0,0,1-3.369,3.09v-2.081a53.131,53.131,0,0,0-6.05,4.133,66.8,66.8,0,0,0-6.86,7.181c-2.5,3.015-3.693,6.713-4.606,10.472-.3,1.251-.607,2.171-2.259,1.958-.444-.058-1.018.885-1.173,1.031l-2.4-3.391-1.277.957-1.8-3.543a19.858,19.858,0,0,1-2.29.285,2.018,2.018,0,0,1-2.182-2.509c.543-3.23,1.1-6.457,1.721-9.673.652-3.372,1.449-6.717,2.045-10.1.195-1.105-.18-2.3-.053-3.43.387-3.424,1.021-6.823,1.313-10.254.3-3.552.215-7.136.487-10.691.228-2.979.831-5.929,1.077-8.907.238-2.872.251-5.764.325-8.648.03-1.16-.025-2.322-.07-3.483-.055-1.4-.728-1.945-2.092-2.659-2.062-1.08-3.528.426-5.357.147,1.166,1.315.943,1.625-1.913,2.754l-.516-1.311a3.009,3.009,0,0,0-3.2,2.434c-2.083-.3-3.753,1.122-5.382,2.622a3.165,3.165,0,0,0-.394.56c-1.473-1.241-1.759,1.1-2.928,1.012-.25-.019-.573.9-.866,1.395l-1.067-.73v1.378l-2-.221a3.724,3.724,0,0,1,.054,1.269c-.093.294-.5.489-.771.729-.876-2.064-1.828.112-2.078.272-2.391,1.519-5,2.775-6.465,5.521-.505.949-2.025,1.342-3.045,2.04a18.645,18.645,0,0,0-2.463,1.89c-.974.941-1.778,2.059-2.76,2.991a3.657,3.657,0,0,1-1.416.521c-.115.359-.156,1.124-.422,1.213-3.524,1.175-5.178,4.387-7.509,6.834a54.719,54.719,0,0,0-4.566,5.532c-.879,1.207-1.389,2.676-2.18,3.956-.363.588-1.063.959-1.5,1.516a13.087,13.087,0,0,0-.9,1.646c-.382.671-.633,1.654-1.213,1.931-1.9.906-1.847,3.039-3.055,4.361-1.229,1.346-2.263,2.871-3.371,4.326a3.8,3.8,0,0,0-.839,1.268c-.273,1.245-1.7,2.194-1.813,2.784-.407,2.12-3.567,1.574-3.409,4.006.021.316-1.6.738-2.651,1.192.02-1.857-.58-3.111-2.31-3.342l1.556,3.608-.508.179c-1.056-1.029-2.146-2.026-3.141-3.11-.226-.246-.09-.8-.181-1.2-.3-1.32-.535-2.776-2.558-1.511.776-2.526.638-3.3-.578-5.065-1.671,0-3.021.068-4.358-.034a3.73,3.73,0,0,1-1.56-.708c-.853-.545-.682-.955-.11-1.814.409-.614-.4-1.921-.216-2.827a27.639,27.639,0,0,1,1.594-5.039c1.024-2.46,2.111-4.907,3.366-7.255,1.347-2.52,3-4.874,4.368-7.387,1.134-2.09,1.937-4.36,3.074-6.449,1.218-2.237,2.717-4.321,3.974-6.539.751-1.325,1.219-2.807,1.908-4.171.979-1.94,2.026-3.847,3.085-5.745.294-.526.843-.922,1.086-1.462.715-1.59,1.22-3.283,2.02-4.825,1.167-2.249,2.694-4.32,3.755-6.612,1.925-4.157,3.539-8.458,5.443-12.625,1.078-2.358,2.578-4.521,3.69-6.865.652-1.375.782-2.991,1.388-4.395.81-1.875,2.023-3.584,2.759-5.482,1.061-2.738,1.8-5.6,2.767-8.375,1.155-3.3,2.518-6.528,3.591-9.852a39.834,39.834,0,0,0,1.326-6.2c.3-1.975.387-3.983.593-6.262-1.7.118-3.472.246-5.246.364-1.323.088-2.648.144-3.968.259a2.177,2.177,0,0,0-1.266.359c-1.192,1.2-2.806,1.19-4.242,1.709-1.065.385-1.914,1.333-2.959,1.817-1.872.868-3.937,1.372-5.707,2.4-2.888,1.672-5.98,2.912-8.875,4.621-4.307,2.542-8.767,4.838-12.766,7.863-4.912,3.717-9.775,7.505-14.54,11.407-3.365,2.756-6.651,5.633-9.758,8.674-3.358,3.287-6.464,6.831-9.686,10.258-2.534,2.7-5.173,5.3-7.591,8.1-2.9,3.356-5.608,6.88-8.413,10.319-1.387,1.7-2.858,3.336-4.2,5.071-1.356,1.752-2.535,3.641-3.908,5.38-2.414,3.059-4.957,6.018-7.366,9.081-1.646,2.094-3.183,4.275-4.718,6.453-1.76,2.5-3.446,5.046-5.2,7.55-2.125,3.037-4.311,6.032-6.419,9.081-1.474,2.132-2.781,4.383-4.305,6.476-1.807,2.48-3.764,4.85-5.663,7.262-.477.605-.979,1.191-1.834,2.228-1.3-1.3-2.508-2.586-3.813-3.774a3.937,3.937,0,0,0-1.764-.886c-1.666-.353-2.4-1.359-1.677-2.951.865-1.9,2.069-3.64,3.018-5.505.97-1.908,1.718-3.93,2.727-5.815,1.231-2.3,2.646-4.5,3.956-6.76,2.191-3.78,4.244-7.646,6.579-11.334,1.84-2.9,4.066-5.562,6.028-8.393,1.248-1.8,2.28-3.749,3.5-5.572.9-1.352,1.932-2.622,2.938-3.9,3.036-3.869,6.379-7.536,9.06-11.637,3.451-5.28,7.856-9.774,11.506-14.885C52.184,59.54,55.5,56.4,58.5,53.053q1.775-1.976,3.615-3.892c1.669-1.744,3.307-3.525,5.063-5.179,3.131-2.952,6.3-5.867,9.528-8.711,3.522-3.1,7.011-6.262,10.733-9.111,4.071-3.117,8.389-5.91,12.6-8.839,1.413-.982,2.776-2.056,4.269-2.9,2.135-1.2,4.367-2.234,6.561-3.332,1.379-.69,2.749-1.4,4.15-2.046,2.363-1.083,4.728-2.166,7.129-3.161a70.021,70.021,0,0,1,7.916-3.031A99.8,99.8,0,0,1,140.064.827c.615-.1,1.339.427,2.068.685.481-2.24,2.7-.908,4.127-1.469.374-.147.89.079,1.342.113.19.014.482-.113.559-.027.4.45.748.948,1.114,1.429L150.391.1l2.045,1.681c1.274-.921,2.694-.6,4.334.725.58.469,1.821,1.47,3.11.824.184-.092.615.161.855.351,2.011,1.592,3.879,3.288,4.818,5.8.5,1.335,1.637,2.571,1.716,3.9.188,3.16-.063,6.347-.175,9.522a27.227,27.227,0,0,1-.346,4.884c-.555,2.51-1.575,4.921-2.088,7.437-.531,2.6-1.621,5.031-2.321,7.574a67.488,67.488,0,0,1-5.517,12.765c-.637,1.233-1.307,2.4-1.871,3.687-.466,1.064-.492,2.727-1.2,3.1-1.4.741-.833,1.935-1.26,2.844-.445.947-.511,2.079-.993,3-.992,1.893-2.474,3.589-3.144,5.572a23.1,23.1,0,0,1-2.27,4.991c-.1.164.039.481.05.575,5.79-2.755,11.444-5.724,17.319-8.162,5.813-2.412,11.848-4.288,17.939-6.453.236,3.826,2.576,1.34,3.969,1.957l.259-2.38,1.84,1.647.391-.374-.657-.966,1.129-.321.554,1.906.981-1.428h2.6l-.309,1.67c.58-.489.855-.867,1.217-.995a4.954,4.954,0,0,1,2.026-.4c.6.059,1.132.628,1.741.777,3.3.811,6.017,2.759,8.691,4.673,1.09.78,1.675,2.276,2.441,3.478.083.131-.087.57-.262.692-.823.574-.644,1.044-.1,1.762.612.809,1.04,1.8-.5,3.006L206.361,76.4a2.4,2.4,0,0,0-.245-.685,40.865,40.865,0,0,0-3.033-3.791c-.959-.978-2.123-2.03-3.521-.469a55.351,55.351,0,0,1,2.916,6.117,44.749,44.749,0,0,1,1.145,5.947c.432,2.2.914,4.38,1.379,6.564a3.438,3.438,0,0,1,.074,1.231,4.526,4.526,0,0,0,.534,4.31l.6-1.956,1.124-.114L206.321,92.1l1-.446a5.507,5.507,0,0,0-1.02-1.3,3.394,3.394,0,0,0-1.316-.227l2.729-1.591c-.326-2.617-.663-5.015-.879-7.422-.03-.335.6-1.062.822-1.022.524.1,1.316.466,1.405.86a10.97,10.97,0,0,1,.241,3.435c-.22,2.261-.606,4.507-.953,6.755-.236,1.529-.476,3.06-.808,4.57a9.733,9.733,0,0,1-.868,1.844l-1.382-1.7c-.525,1-.742,1.954.358,2.674,1.329.87,1.024,1.991.746,3.225-.253,1.125-.808,1.387-1.883,1.19-.214-.039-.732.663-.825,1.086a10.011,10.011,0,0,0-.037,2.075l1.826.139c.084.6.176,1.263.3,2.158l-2.112.292-.612,3.093.481.06,1.5-1.959.583.063c-.6,4.681-1.193,9.363-1.809,14.2a15.728,15.728,0,0,0,1.816-.732c3.689-2.049,7.395-4.071,11.029-6.215a10.1,10.1,0,0,1,6.2-1.808c.818.07,1.722-.848,2.387-1.207.857-.256,1.566-.481,2.283-.679,1.388-.385,2.778-1.361,4.174,0a1.239,1.239,0,0,0,.509.187c.742-1.949,2.282-.55,3.241-.534,3.412.059,6.968.227,10.019,1.879,3.109,1.684,6.485,3.285,7.87,7a1.49,1.49,0,0,0,.216.31c1.046,1.455,1.009,2.027-.5,3.675l2.484-.308,1.387,6.47c1.67-2.36,3.118-4.514,4.7-6.567.4-.526,1.232-.72,1.851-1.089.268-.16.682-.343.724-.571.311-1.693.384-1.6,1.94-3.134a19.979,19.979,0,0,0,2.178-3.27,8.545,8.545,0,0,1,.955-1.179,3.348,3.348,0,0,1,1.346-.881,15.848,15.848,0,0,0,1.337-1.433c.195-.263.07-.814.289-1,1.732-1.463,3.5-2.883,5.278-4.291a60.935,60.935,0,0,1,5.622-4.315c2.6-1.6,5.378-2.919,8.114-4.287a1.42,1.42,0,0,1,1.332.16,2.418,2.418,0,0,1,.141,1.559,23.814,23.814,0,0,1-.633,2.381l-1.32-.436v2.219l2.347-1.4c.991,1.907.581,4.635,4.288,4.013a11.489,11.489,0,0,0-.921,1.714,13.246,13.246,0,0,0-.311,1.843c-1.681-.852-2.981.011-4.115,1.066-.907.844-1.587,1.927-2.427,2.85-.485.532-1.232.872-1.582,1.464-.2.337.165,1.006.276,1.526a8.5,8.5,0,0,0,1.239-.621c1.176-.844,1.878-2.576,3.985-1.908l-.768-2.028.463.377Q294.789,113.663,296.319,112.38Zm-19.267,18.973,7.855-8.54c-.624-.272-1.56-.244-1.6-.038-.443,2.222-2.608,1.84-3.915,2.747.153,2.073-.953,3.57-2.339,3.281C277.053,129.564,277.053,130.345,277.053,131.352ZM261.39,161.14a8.217,8.217,0,0,1,.042-2.107c.159-.582.772-1.027,1-1.606a2.826,2.826,0,0,0-.049-1.382.983.983,0,0,0-.6-.1,9.336,9.336,0,0,0-.421,1.173c-.134.4-.153.932-.427,1.178C259.478,159.6,259.537,160.083,261.39,161.14Zm24.361-42.807c-.745.756-1.971,1.4-1.015,2.784a1.312,1.312,0,0,0,1.139.109C286.388,120.282,287.482,119.241,285.751,118.332Z" transform="matrix(0.914, 0.407, -0.407, 0.914, 70.661, 0.008)" fill="#00c4cc"/></svg>