<svg xmlns="http://www.w3.org/2000/svg" width="191.023" height="42.688" viewBox="0 0 191.023 42.688">
  <path id="Path_17" data-name="Path 17" d="M163.1,12.8c.261.1.557.333.778.276.617-.158,1.187-.521,1.807-.643.592-.117,1-.575,1.644-.633a6.926,6.926,0,0,0,1.8-.72,16.209,16.209,0,0,0,2.649-1.112c.465-.3,1.054-.289,1.463-.782.26-.313.884-.325,1.345-.471.787-.251,1.6-.443,2.353-.769.729-.315,1.383-.8,2.1-1.151.6-.3,1.244-.511,1.863-.773A1.414,1.414,0,0,0,181.2,5.8c-.125-.035-.265-.124-.372-.095-.345.1-.678.237-1.016.361l-.137-.158.509-.515c-.371,0-.936-.17-1.261.036a1.948,1.948,0,0,1-1.845.207c-.152-.053-.369.054-.547.112-.247.081-.481.2-.731.274-.264.075-.55-.316-.814.025l-.495-.442a3.013,3.013,0,0,1-1.006.53A22.289,22.289,0,0,1,171,6.208c-.055,0-.132-.066-.163-.046-.437.278-.78.191-1.018-.321l-.364.318a2.592,2.592,0,0,0-.7-.248c-1.16-.022-2.321-.038-3.48,0-.593.019-1.181.209-1.773.217a3.434,3.434,0,0,1-1.037-.37c-.24.355-.46.12-.883-.131-.389-.231-1.037-.02-1.571-.015-.233,0-.469-.047-.7-.03a1.858,1.858,0,0,1-1.414-.755c-.325.593-.315.583-.747.186-.073-.067-.423-.413-.371.127-.235-.016-.548.059-.693-.064-.768-.649-1.816-.332-2.646-.846a10.418,10.418,0,0,0-2.045-.688,2.178,2.178,0,0,1-.509-.375h-.6l.176-.626c-.071-.383-1.027-.449-.647-1.082a5,5,0,0,1-.888-.885c-.191-.323-.094-.623.422-.564.75.086,1.507.111,2.256.2.144.017.266.217.418.349.057-.064.149-.229.2-.218a11.176,11.176,0,0,1,2.583.637c.5.242.882.5,1.429.292.037-.014.112-.014.125.007.423.689,1.1.249,1.645.377a1.271,1.271,0,0,1,.347.193c.2.032.381.07.561.086.231.021.463.019.694.036.143.01.284.039.426.057.735.1,1.468.252,2.2.273,2.19.063,4.382.132,6.571.082,1.384-.032,2.762-.287,4.146-.415,1-.093,2.012-.139,3.018-.214,1.43-.107,2.861-.209,4.289-.338,1.37-.124,2.737-.273,4.1-.425.522-.058,1.038-.2,1.56-.219a15.578,15.578,0,0,0,1.725.087c1.083-.159,1.971.416,2.946.648.4.095.587.436.244.848a50.623,50.623,0,0,1-3.3,3.925c-2.235,2.187-4.633,4.208-6.906,6.358-1.353,1.28-2.593,2.679-3.892,4.016a3.76,3.76,0,0,1-.547.391c.219.4-.178.477-.456.634-.06.034-.09.121-.195.272l-.471.032.383.24c-.934,1.737-1.881,3.494-2.823,5.253a11.169,11.169,0,0,1-.622,1.182c-.112.159-.4.191-.738.334a1.552,1.552,0,0,0-.034.2,5.007,5.007,0,0,1-.16,1.153c-.121.315-.094.83-.772.746-.2-.025-.55.6-.713.982a13.629,13.629,0,0,0-.913,2.539,3.742,3.742,0,0,1-.7,1.559,2.035,2.035,0,0,1-.723-2.08c.183-.735.506-1.433.754-2.152.231-.67.417-1.358.674-2.018.36-.923.761-1.829,1.158-2.737a9.358,9.358,0,0,0,.562-1.19,16.582,16.582,0,0,1,2.6-5.1c.938-1.34,2.01-2.586,3.02-3.876.3-.377.561-.779.875-1.139.67-.77,1.362-1.52,2.019-2.332-.572.358-1.274.338-1.834.822a7.14,7.14,0,0,1-1.525.639c-.577.285-1.114.65-1.679.96-.833.456-1.671.9-2.52,1.329a.659.659,0,0,1-.381.01,2.963,2.963,0,0,1-.573.5c-.4.176-.991.177-1.189.466-.339.494-1.019.3-1.215.664-.385.724-1.3.47-1.737,1.144-.228.35-.949.355-1.415.582a12.816,12.816,0,0,0-1.225.767c-.27.085-.716.106-.775.267-.206.571-.7.679-1.136.9-.547.273-1.1.542-1.638.828-.506.268-.992.573-1.5.83-.437.219-.893.4-1.349.58-.109.042-.258-.032-.384-.016a.859.859,0,0,0-.412.127c-.228.182-.392.472-.642.594-.688.335-1.4.617-2.118.891-.1.039-.264-.079-.406-.126-.361.578-.566.634-1,.252-.171.618-.257.653-.86.472-.093-.028-.241.126-.371.2l0-.006c-.285.164-.558.327-.838.478-.419.227-.834.466-1.268.66a11.729,11.729,0,0,1-1.116.367,1.865,1.865,0,0,1-1.663.668c-.59.347-1.013.637-1.471.854-.724.344-1.467.648-2.209.952-.519.213-1.045.41-1.579.581-.1.032-.26-.146-.379-.13a1.092,1.092,0,0,0-.417.222c-.254.174-.484.472-.752.51a1.212,1.212,0,0,1-.825-.4l-.861.262.135.49.319-.532c-.129.814-.606,1.08-1.209.808-.483-.217-.714-.084-.691.364l-1.352.332-.239.457-.15-.075.118-.542-.58.11.216.609a11.506,11.506,0,0,0-1.976.032c-.343.061-.869.057-1.007.658-.029.125-.7.116-1.081.143-.524.037-1.051.04-1.574.084-.07.006-.126.163-.192.247-.1.126-.195.343-.31.356a.952.952,0,0,0-.834.421c-.025.043-.167.018-.306.028a2.135,2.135,0,0,0,.263-.324c.013-.025-.088-.111-.136-.169l-.565.609c-.53-.265-1.168.772-1.818.085a3.143,3.143,0,0,1-2.13,1.274c-.235.029-.5.32-.672.259-.9-.328-1.608.38-2.436.4a14.084,14.084,0,0,0-1.611.159c-.3.043-.581.177-.878.234-.368.07-.742.113-1.115.149s-.777.05-1.165.073l.012.171.272.13c0,.034,0,.067.006.1-.169,0-.339.007-.508,0-.139-.007-.277-.034-.5-.062l-.052-.263c-.077.006-.132-.007-.156.014-.175.16-.321.434-.517.473-1.24.25-2.486.475-3.737.653-.721.1-1.46.072-2.183.166-.251.032-.464.342-.717.382q-2.936.471-5.884.866c-.241.032-.512-.167-.791-.266l-.392.517c-.12-.776-.491-.993-1.136-.846-.029.293-.059.6-.087.876-.947.136-1.863.3-2.787.381a1.346,1.346,0,0,1-.641-.237c-.265.205-.437.448-.642.48-1.311.207-2.63.362-3.946.544-.991.137-1.976.325-2.971.416-.393.036-1.027-.321-1.163-.164-.347.4-.708.287-1.09.318-.822.065-1.645.126-2.464.22-1.011.116-2.014.323-3.027.383-1.481.088-2.968.067-4.451.128a3.286,3.286,0,0,0-.872.317l.184-.731a2.3,2.3,0,0,1-2.585.67l1.764-.4c-.106-.1-.193-.232-.258-.222a3.327,3.327,0,0,1-.932.191c-.429-.071-.53.1-.559.444a2.368,2.368,0,0,1-2.134,0c-.048-.025-.154,0-.164-.029-.405-1.083-1.328-.572-2.048-.657a4.629,4.629,0,0,0-.965.03c-.347.033-.692.1-1.037.147l-.033.172.488.2-.67.466-.121-.733H63.712c0,.038,0,.075,0,.113l.519.3a3.229,3.229,0,0,1-2.5.561c-.89.006-1.777.041-2.665.08-.745.033-1.492.039-2.238.049-1.187.016-2.379.1-3.56.015a15.944,15.944,0,0,1-2.382-.522.541.541,0,0,0-.4.037l.35.261a13.639,13.639,0,0,0-4.862-.465l.84.128a2.884,2.884,0,0,1-.685.4,2.565,2.565,0,0,1-.946.055,4.219,4.219,0,0,1-.954-.255c-.292-.106-.514-.128-.655.277-.154-.2-.306-.412-.475-.61a.34.34,0,0,0-.221-.112c-.842-.022-1.684-.039-2.526-.041-.137,0-.274.109-.413.113-.172,0-.348-.075-.52-.068a1.213,1.213,0,0,0-.364.142l-.666.27-.086-.213.4-.233c-.65.034-1.3-.2-1.863.408a1.081,1.081,0,0,1-1.392.183c-.12-.082-.416.093-.661.158,0-.158,0-.291,0-.432-.044,0-.088-.007-.109.01-.374.307-1.667.43-1.97.069s-.51-.033-.752-.075a4.065,4.065,0,0,0-.618-.006l-.055.273c-.329.021-.68.07-.768-.458-.012-.072-.378-.178-.406-.14-.486.658-1.173.362-1.761.346-1.336-.036-2.672-.132-4-.256-1.514-.141-3.022-.339-4.533-.51-.774-.088-1.551-.151-2.32-.266a1.993,1.993,0,0,1-.583-.275l-1.007-.052.392-.786-1.713.415v-.008a10.952,10.952,0,0,1-1.621.152,1.163,1.163,0,0,1-1.036-.387c-.278-.343-.905-.412-1.387-.576a1.2,1.2,0,0,0-.651-.089c-.154.043-.255.278-.392.442l-1.85-.143-.036-.141.547-.34c-.567-.44-.764.31-1.17.338-.144.01-.3.159-.422.13-.529-.126-1.047-.294-1.607-.458l-.322-.6.211-.083-.076-.16a5,5,0,0,1-1.132.2,4.348,4.348,0,0,1-1.2-.3,5.861,5.861,0,0,1-1.285-.563C.874,36.339.238,36.47.387,35.8.4,35.742.1,35.656.066,35.545c-.2-.581.079-1,.714-1.159.488-.12.941-.461,1.488-.144.086.05.3-.122.476-.2,0,.111,0,.218,0,.442l.5-.692.5.37,1.3-1.593-.818-.514.036-.126a11.451,11.451,0,0,0,1.506.1c.147-.007.28-.319.419-.491-.015-.158.022-.353-.058-.463a1.633,1.633,0,0,0-.457-.312L5.209,30.4l.132-.954a6.884,6.884,0,0,0,1.169-.29c.157-.064.209-.386.373-.721.347-.05.854-.142,1.366-.183.123-.01.259.148.39.228l-.066.213,1.546-.317c.031.131.065.393.1.392.448,0,.9-.043,1.345-.067.2-.01.392,0,.685,0l.178-.4c.187.567.378.988.692.275a10.519,10.519,0,0,1,1.47-.088c.237.016.458.25.731.411l.049-.3,2.068.171.073.495,1.261-.546.733.061c.111-.762-.021-.989-.534-1.04.065.143.213.316.188.46-.018.1-.269.162-.417.241-.051-.059-.1-.165-.154-.17-.226-.019-.454-.008-.681-.008l-.005-.187.468-.057.082-.164a1.985,1.985,0,0,0-.628-.307c-.524-.046-1.055-.018-1.583-.019l-2.385,0H11.925v.194a4.044,4.044,0,0,0-.968-.309c-.737-.048-1.479-.015-2.219-.015q-.006.106-.011.212l.389.1-.178.3-1.65-.3.5-.84s-.172-.171-.15-.2a3.984,3.984,0,0,1,.609-.676,6.91,6.91,0,0,1,.838-.5c.417,0,1.053,0,1.689,0,1.218,0,2.436.007,3.654-.02.945-.021,1.889-.123,2.833-.128.919-.005,1.839.066,2.758.1.869.037,1.742.042,2.607.122a5.686,5.686,0,0,1,2.309.2c.436.217,1.105-.074,1.668-.065.959.016,1.916.109,2.875.132,1.023.025,2.047.006,3.03.006l-.142.211c.294-.031.534-.068.775-.08.8-.041,1.6-.08,2.395-.106,1.569-.051,3.14-.133,4.709-.127,1.23,0,2.459.135,3.69.186.778.032,1.557.03,2.336.025a3.808,3.808,0,0,0,1.649-.094c.714-.387,1.355-.045,2.02-.084,2.39-.138,4.783-.234,7.175-.332q2.19-.089,4.381-.132c1.433-.027,2.867,0,4.3-.038,1.264-.033,2.527-.14,3.791-.178.6-.018,1.215.1,1.818.06.894-.055,1.781-.2,2.673-.291.323-.033.652-.007.976-.028a18.841,18.841,0,0,1,2.557-.158,30.694,30.694,0,0,0,5.188-.438,2.068,2.068,0,0,1,.318-.035,41.108,41.108,0,0,0,4.618-.293c.712-.033,1.428.008,2.138-.045.56-.042,1.113-.184,1.671-.266.31-.046.624-.061.936-.089.911-.082,1.821-.181,2.733-.242,1.015-.068,2.035-.069,3.047-.159.747-.066,1.483-.242,2.228-.339.476-.062.961-.057,1.44-.105.393-.04.782-.123,1.175-.172,1.054-.131,2.109-.265,3.166-.371.307-.031.625.055.934.033.477-.035.95-.132,1.427-.169.124-.01.258.1.388.161a2.389,2.389,0,0,0-.217.3c-.041.078-.086.212-.05.259a.309.309,0,0,0,.267.094.348.348,0,0,0,.195-.214,4.506,4.506,0,0,0,.094-.578c.09.024.194.091.264.065a14.644,14.644,0,0,1,4.911-.529,21.583,21.583,0,0,0,2.191-.375c.775-.1,1.56-.114,2.339-.187.582-.054,1.163-.123,1.739-.221.537-.091,1.061-.259,1.6-.336.593-.085,1.2-.08,1.793-.159.762-.1,1.521-.232,2.276-.378.906-.176,1.8-.411,2.711-.569,1.067-.185,2.148-.288,3.215-.476,1.12-.2,2.228-.456,3.343-.681.884-.178,1.779-.313,2.654-.526,1.28-.312,2.538-.714,3.822-1.01,1.466-.338,2.952-.589,4.424-.9,1.23-.26,2.45-.569,3.681-.823.543-.112,1.111-.1,1.651-.223.489-.11.948-.351,1.434-.482,1.08-.291,2.167-.552,3.253-.82,1.54-.38,3.085-.741,4.622-1.136,1.1-.282,2.178-.652,3.285-.9.668-.147,1.194-.635,1.833-.734a32.042,32.042,0,0,0,3.2-.97,9.543,9.543,0,0,0,1.442-.693c.088-.04.236.068.341.043a5.822,5.822,0,0,0,.581-.217c.388-.139.784-.26,1.167-.414.25-.1.474-.266.724-.368.657-.27,1.316-.537,1.988-.767.131-.045.32.081.482.128l.025.221c-.806.305-1.606.627-2.419.912-1.4.49-2.813.922-4.2,1.447-1.147.436-2.25.987-3.386,1.454-.673.276-1.385.457-2.054.741a8.835,8.835,0,0,0-1.153.7c-.617-.3-.816-.226-1.26.37-.069.092-.3.052-.451.1a3.08,3.08,0,0,0-.372.166,1.462,1.462,0,0,0-.471.021,7,7,0,0,0-.829.41,4.491,4.491,0,0,0-.4.276c-.576-.3-1.109-.075-1.269.691l1.27-.517a.893.893,0,0,0,1.09-.234c.185-.233.4-.443.6-.664a2.009,2.009,0,0,0,.725.228A1.7,1.7,0,0,0,163.1,12.8ZM100.111,25.837l-.589.608a2.029,2.029,0,0,0,.971-.092c.055-.017.105-.285.071-.308a2.227,2.227,0,0,0-.465-.193l-.368-.316.263-.355c-.286.269-1.006.117-.871.838Zm48.718-8.544h1.783l-.555-.623.875-.284-.119-.29-1.555.714-.11-.275-.523.294c.08.175.15.328.219.48l-.678-.253c-.051.218-.2.4-.565.027l.142.752ZM36.107,29.058c-.217-.1-.439-.185-.649-.3a4.811,4.811,0,0,0-1.034-.552,4.014,4.014,0,0,0-1.138.057l-.074.453c-.475.041-.855.06-1.23.116a.317.317,0,0,0-.193.244c0,.1.111.273.183.278.462.029,1.05.259,1.337.161.617-.211,1.187.139,1.762-.083a5.292,5.292,0,0,1,1.03-.186l.679.094-.51-.447c.388-.043.662-.063.93-.11.053-.009.12-.12.122-.186a.3.3,0,0,0-.11-.178C36.814,28.582,36.261,28.479,36.107,29.058Zm93.125-7.265c-.132.018-.346.1-.384.045-.379-.519-.813-.212-1.346-.136l.56.367-.542.263c.008-.424-.023-.7-.547-.547a13.676,13.676,0,0,1-1.614.3c-.106.018-.22-.013-.329,0-.264.022-.6-.033-.768.109-.135.115-.065.471-.093.81.028-.014-.089.094-.155.069-.332-.126-.848.612-1.033-.216-.014-.064-.165-.1-.253-.146-.163.53-.556-.046-.8.174v.472c-.144-.059-.222-.143-.222-.226,0-.551-.425-.5-.727-.449-.594.105-1.167.387-1.76.431-.455.034-.473.386-.7.583l.738.419.068-.107.309.463c.222-.154.343-.3.482-.324.722-.1,1.452-.141,2.169-.263.144-.025.244-.309.4-.527l.365.285,2-.342.03.133-.274.154a6.726,6.726,0,0,0,1.561-.209c.039-.009.026-.171.077-.212a1.127,1.127,0,0,1,.307-.154c.347.625.321-.157.5-.008h1.006c0-.044,0-.089,0-.133l-.655.085q.005-.106.011-.213l1.562.1-.575-.172.019-.146h1.283l.128-.187-.353-.526.881-.2v.563l3.388-.383-.018-.169-.4-.131c.727-.192,1.556.5,1.984-.368.157.052.271.133.342.105.451-.174.882-.41,1.342-.549.323-.1.691-.041,1.024-.117.172-.039.311-.218.518-.373l.178.134.151-.077c-.164-.332-.249-.8-.516-.953-.218-.127-.651.123-.991.2-1.448.309-2.9.607-4.346.922a6.9,6.9,0,0,0-1.48.4,6.61,6.61,0,0,1-1.908.382C129.343,21.269,129.246,21.394,129.232,21.793ZM64.67,29.582c.224-.175.345-.352.478-.361q2.17-.145,4.343-.239c.61-.027,1.222,0,1.833,0l.04-.259a2.355,2.355,0,0,0-.438-.189c-.209.31-.346.035-.393-.077s.058-.264.117-.475c-.51-.838-1.163-.539-1.9.15l.274-.534c-.626-.227-1.292.546-1.837-.183-.032-.043-.326.113-.5.17a1.663,1.663,0,0,1-.426.116c-.906.037-1.813.05-2.718.091-.613.027-1.225.086-1.9.135l-.152.324c-.153-.123-.279-.3-.4-.3s-.24.188-.357.291l.269.351H62.64l-.465.664C63.133,29.19,64.044,29,64.67,29.582ZM21.081,28.534a27.04,27.04,0,0,0,7.76.712l.07.613c.152-.249.245-.531.337-.531.406,0,.289-.293.247-.445-.046-.167-.26-.442-.334-.422-.338.091-.764-.114-1.013.359-.156.3-1.352.04-1.474-.277-.211-.551-.457-.673-.986-.514a1.982,1.982,0,0,1-.731.157,10.581,10.581,0,0,1-1.448-.29,1.322,1.322,0,0,0-1.142.366,2.392,2.392,0,0,1-.855.2C21.371,28.5,21.225,28.512,21.081,28.534Zm28.183.2.519-.094a1.613,1.613,0,0,0-.479-.268,9.829,9.829,0,0,0-1.22-.076c-.054,0-.111.129-.166.2a2.224,2.224,0,0,0,.182.129c.251-.293.374-.149.341.132-.014.116-.035.535-.426.271-.067-.045-.29.139-.44.218l.081.235h1.281l.223.281,1.734-.515-.023-.193-1.494.09Zm29.446-.3-.031-.291-.966-.053.016-.105,1.314-.272.042-.206a6.807,6.807,0,0,0-1.143-.291,2.726,2.726,0,0,0-2.181.578l.089.193,1.659-.1-.089.152a2.7,2.7,0,0,0,.652.491C78.248,28.6,78.494,28.473,78.709,28.434Zm36.428-4.61.114.212-.358.861c.986-.041,1.711-.331,1.782-1.435l-.749.265c-.294-.068-.622-.8-.983-.006a.248.248,0,0,1-.235.044c-.425-.281-.71.109-1.064.261a1.152,1.152,0,0,0,.711.125A4.352,4.352,0,0,0,115.138,23.824Zm-5.377,1.223-.021-.181,1.3.07.733-.858-.155-.126-1.535.575-.677-.314a7.027,7.027,0,0,1-.071.966,2.291,2.291,0,0,1-.51,0c.229.4.607.446,1.5.129Zm-78.812,3.57.979-.226a6.782,6.782,0,0,0-1.155-.289,4.737,4.737,0,0,0-.98.139l.038.209.939-.078a.755.755,0,0,1-.5.435c-.663.112-.722.223-.446.778a2.9,2.9,0,0,1,.8-.29,4.2,4.2,0,0,1,.944.165l.086-.2Zm15.289.795c.3.049.571.1.845.133.11.011.309-.011.326-.064.12-.368.2-.749.317-1.2l-1.153.2.331.479-.438-.119ZM175.749,14.468a7.684,7.684,0,0,0,1.03-.846c.16-.181.628-.3.339-.719l.776-.471C176.747,12.626,176.334,13.643,175.749,14.468ZM26.954,28.034l-.085.165.877.66.91-.825Zm80.4-3.523c.216.469.474.409.858.264.235-.089.572.092.863.151A1.532,1.532,0,0,0,107.355,24.511Zm-69.349,4.5-1.343.156a1.592,1.592,0,0,0,1.695.27Zm78.965-5.624c.1.565.685,1.049,1.119.841l-.629-.4.593-.518c-.334-.194-.62-.2-.69.307ZM43.93,29.8c-.049-.213-.031-.493-.163-.62a.986.986,0,0,0-.676-.236c-.092,0-.166.354-.249.547l.039.3C43.492,28.906,43.567,29.574,43.93,29.8Zm-3.208-.29-.131-.294c-.443,0-.771-.02-1.094.006s-.625.1-.937.15l.019.139Zm105.045-12.4c-.1.48-.278.829-.189,1.085.058.166.506.2.77.284Zm-38.551,8.776c.285-.335.924.04.875-.629l-1-.106Zm-24.886,2c-.1-.166-.154-.385-.28-.44s-.346.027-.484.046l.544.954ZM4.98,30.768c-.675-.117-.687-.113-.511.635.195-.085.543-.245.547-.236.267.542.779.281,1.175.373-.015-.158.022-.353-.058-.463a1.633,1.633,0,0,0-.457-.312A3.842,3.842,0,0,1,4.98,30.768ZM177.966,6.453l-1.6.778.086.185,1.646-.643ZM58.185,42.686c.424,0,.847.006,1.271,0a1.86,1.86,0,0,0,.366-.083l-.071-.193-1.578.115Q58.178,42.6,58.185,42.686Z" transform="translate(0 0)" fill="#FFD200"/>
</svg>