<svg xmlns="http://www.w3.org/2000/svg" xmlns:xlink="http://www.w3.org/1999/xlink" width="79" height="68.815" viewBox="0 0 79 68.815"><defs><clipPath id="a"><rect width="79" height="68.815" fill="#00c4cc"/></clipPath></defs><g transform="translate(79 68.815) rotate(180)"><g clip-path="url(#a)"><path d="M36.407,11.223C35.6,8.1,34.37,4.632,31.865,2.451c-3.572-3.11-7.7-2.969-11.337-1.191a13.4,13.4,0,0,0-6.5,1.532,16.448,16.448,0,0,0-2.827,1.653c-3.591,1.6-6.433,4.387-7.167,8.785-.047.285-.084.569-.116.853-.746,1.03-1.445,2.1-2.141,3.157a1.86,1.86,0,0,0,.059,2.25,20.275,20.275,0,0,0-.508,2.837A2.122,2.122,0,0,0,2.48,24.3a21.62,21.62,0,0,0,8.246,10.7,2.737,2.737,0,0,0,1.58.426q.547.431,1.109.848a2.58,2.58,0,0,0,.84.42C9.916,45.119,5.772,53.668.691,61.674a5.018,5.018,0,0,0,1.788,6.819,5.24,5.24,0,0,0,.664.323c9.3-10.293,16.68-22.251,26.312-32.23,1.271-2.606,2.507-5.231,3.737-7.856A15.67,15.67,0,0,0,37.3,19.109a23.313,23.313,0,0,0-.9-7.886" transform="translate(0 -0.001)" fill="#00c4cc"/><path d="M174.244,11.223c-.809-3.125-2.038-6.591-4.542-8.772C166.131-.659,162-.518,158.365,1.26a13.4,13.4,0,0,0-6.5,1.532,16.449,16.449,0,0,0-2.827,1.653,11.506,11.506,0,0,0-7.167,8.785c-.047.285-.084.569-.116.853-.746,1.03-1.445,2.1-2.141,3.157a1.86,1.86,0,0,0,.059,2.25,20.233,20.233,0,0,0-.508,2.837,2.123,2.123,0,0,0,1.147,1.969,21.62,21.62,0,0,0,8.246,10.7,2.738,2.738,0,0,0,1.58.426q.547.431,1.109.848a2.584,2.584,0,0,0,.84.42c-4.339,8.431-8.484,16.98-13.565,24.986a5.018,5.018,0,0,0,1.788,6.819,5.281,5.281,0,0,0,.664.323c9.3-10.293,16.68-22.251,26.312-32.23,1.271-2.606,2.507-5.231,3.737-7.856a15.669,15.669,0,0,0,4.112-9.621,23.328,23.328,0,0,0-.9-7.886" transform="translate(-96.206 -0.001)" fill="#00c4cc"/></g></g></svg>