<svg xmlns="http://www.w3.org/2000/svg" width="473.467" height="522.976" viewBox="0 0 473.467 522.976"><g transform="matrix(0.602, -0.799, 0.799, 0.602, 0, 384.566)"><path d="M125.429,50.305c3.527-3.226,8.424-3.336,12.444-5.47,3.391-1.8,6.908-3.364,10.366-5.04,1.628-.789,3.315-1.483,4.857-2.417,3.326-2.015,6.578-4.152,9.854-6.249,2.41-1.542,4.867-3.018,7.2-4.671q5.618-3.982,11.084-8.177a79.971,79.971,0,0,0,7.279-6.16c2.844-2.8,5.338-5.947,8.185-8.739,1.024-1,1.649-2.411,3.075-3.382.138.663.216,1.039.311,1.5l1.6.1,1.34,3.446c.476-.385,1-1.111,1.64-1.238.611-.122,1.347.381,1.693.5l2.828-2.875c.622,1.412,1.386,2.56,3.146,2.2l-.354,2.011.546.288c.568-.759,1.179-1.491,1.695-2.284A7.474,7.474,0,0,1,218.287.417c1.8-.623,3.151.376,4.731.357,1.1-.013,1.827,3.219,1.17,4.625-1.373,2.937-2.7,5.895-4.153,8.794-.556,1.113-1.448,2.054-2.059,3.145a16.194,16.194,0,0,0-.627,2.034c-.144.368-.559.632-.7,1-.458,1.227-.755,2.522-1.291,3.711a20.366,20.366,0,0,1-1.6,2.4,6.4,6.4,0,0,0-.436,1.035c-.3.439-.572.779-.777,1.156-.819,1.507-2.574,2.211-2.931,4.288-.226,1.315-1.965,2.372-3.031,3.539-.1.107-.27.146-.363.254-1.1,1.266-2.113,2.614-3.3,3.789a29.194,29.194,0,0,1-3.9,3.24c-.4.279-1.227-.046-1.947-.1l.579.832c-1.06,1.1-2.02,2.155-3.044,3.14-.458.441-1.091.7-1.564,1.126-.788.716-1.515,1.5-2.26,2.264a10.133,10.133,0,0,1-2.013,2,6.353,6.353,0,0,1-2.293.379c-.185.509-.217,1.15-.55,1.418-1.423,1.145-2.921,2.2-4.418,3.249-.975.684-2.028,1.261-2.983,1.971a12.53,12.53,0,0,0-1.473,1.592c2.971.413,5.56.836,8.165,1.12,3.172.347,6.354.6,9.535.854,5.289.423,10.576.9,15.872,1.191,3.326.183,6.668.048,10,.106,1.5.026,3,.194,4.508.252.441.017.885-.164,1.331-.184.89-.039,1.847-.807,2.673.316.122.166.961-.151,1.447-.309.308-.1.59-.485.861-.464,4.259.337,8.478-.4,12.72-.447.36,0,.727.175,1.082.15a33.242,33.242,0,0,1,3.772-.322,34.377,34.377,0,0,0,7.683-.676,55.211,55.211,0,0,1,5.8-.4,16.949,16.949,0,0,1,3.222-.3c5.157.654,10.214-.657,15.333-.649,3.273.005,6.631-.515,9.793.063,2.932.537,5.847-.655,8.667.444,3.636-1.332,7.137.449,10.7.632,1.764.09,3.909.01,5.628,1.529,1.05.928,2.8,1.05,4.212,1.594.341.131.582.51.885.754.283.227.591.615.882.609,2.16-.047,3.577,1.629,5.437,2.251a4.846,4.846,0,0,0,.635.037c.884.161,1.766.338,2.895.557-1.365,2.138-2.056.261-3.1.021.475.978-.07,2.47,1.705,2.343a4.682,4.682,0,0,0,1.228-.506c.443-.176.9-.33,1.343-.494l.091.428-1.295.115c.889.877,1.547,1.53,2.208,2.178a4.82,4.82,0,0,0,.969.883c.238.127.7-.144.918-.006a1.9,1.9,0,0,1,.668,2.049l1.011-1.2c1.352,2.693,3.815,4.634,3.3,7.907l-1.064,1.21,1.259,1.521-1.3-.122a8.009,8.009,0,0,1,.617.854c.181.341.529.915.415,1.042-1.367,1.538-1.148,4.06-3.267,5.156-.442.229-.964,1.114-.838,1.5.7,2.13-1.35,2.7-2.057,4.021-.909,1.694-2.386,3-3.306,4.525-1.035,1.711-2.471,2.926-3.5,4.455a5.751,5.751,0,0,1-1.991,2.01,6.6,6.6,0,0,0-3.308,3.465c-.111.255-.835.245-1.418.393.111,1.615-1.335,2.035-2.435,2.811-.951.672-1.758,1.545-2.7,2.239-1.149.851-2.367,1.608-3.556,2.406-.295.2-.69.331-.867.605-.861,1.334-2.26,1.784-3.522,2.558-1.336.82-2.313,2.131-4.115,1.89-1.623,2.282-4.308,2.907-6.591,4.128a11.973,11.973,0,0,1-2.965.55c-.251.056-.439.407-.65.628-.24.251-.424.619-.716.747-1.855.814-3.715,1.626-5.611,2.338-1.211.455-2.714.433-3.69,1.158-2.465,1.83-5.418,2.242-8.149,3.282-3.853,1.468-7.7,2.952-11.589,4.324-1.929.681-3.965,1.055-5.908,1.7-2.557.851-5.042,1.924-7.613,2.728-1.644.514-3.42.6-5.076,1.083-2.42.709-4.753,1.729-7.188,2.375a26.6,26.6,0,0,1-4.44.4,12.058,12.058,0,0,0-1.647.248c-2.884.665-5.753,1.393-8.646,2.014q-4.425.95-8.887,1.73c-2.281.4-4.581.7-6.881.961-.289.033-.639-.458-1.083-.8a4.432,4.432,0,0,1-5.032.581c-.413.214-.855.645-1.271.621-1.529-.088-3.1,1.03-4.617-.184-.205-.164-.808.13-1.213.256-2.449.763-4.919.025-7.375.128a1.908,1.908,0,0,0-.822.286c-.207.119-.365.494-.533.486-2.517-.115-5.033-.4-7.548-.389a35.811,35.811,0,0,0-6.346.555c-3.552.653-7.144.817-10.722,1.15a37.116,37.116,0,0,1-6.321.236,25.807,25.807,0,0,0-6.45.383c-.489.083-1.1-.577-1.719-.927-1.57.1-3.372.272-5.178.331-2.047.067-4.1,0-6.146.056q-3,.083-5.989.31c-1.38.1-2.813.655-4.11.409-1.742-.33-3.38.917-4.761.425a12.992,12.992,0,0,0-4.238-.8c-3.3-.057-6.6-.123-9.9-.073-1.2.018-2.411.512-3.606.471-.544-.018-1.061-.808-1.7-1.34-.662.609-1.285,1.83-2.649.45-.458-.464-1.738-.146-2.641-.133-2.542.037-5.18.56-7.6.05-3.763-.792-7.493-.534-11.244-.666-1.336-.047-2.657-.614-3.991-.641-1.873-.038-3.751.256-5.63.317-1.915.062-3.836-.038-5.751.028-2.437.084-4.878.2-7.306.417q-5.179.471-10.34,1.132a22.511,22.511,0,0,0-5.728,1.075c-2.34.967-4.806,1.525-7.111,2.545-.219.1-.505.249-.574.442-.443,1.248-1.279,1.369-2.458.764-.149,1.874-1.688,2.124-2.907,2.726-.518.256-1.335.269-1.574.662a47.537,47.537,0,0,0-2.534,4.882c-.111.242.217.879.515,1.083,1.841,1.268,3.69,2.536,5.614,3.672a62.659,62.659,0,0,0,11.981,5.508c1.481.5,2.838,1.368,4.322,1.853,4,1.3,8.03,2.492,12.049,3.727,2.266.7,4.535,1.378,6.794,2.1,1.139.363,2.246.824,3.383,1.194,1.381.45,2.763.908,4.171,1.259,1.984.494,4,.87,5.986,1.348.6.143,1.133.555,1.731.678,1.059.217,2.171.2,3.212.473,2.042.527,4.054,1.174,6.072,1.795.224.069.409.424.6.413,3.4-.182,6.526.975,9.755,1.772,3.331.823,6.806,1.066,10.215,1.579,2.114.318,4.235.6,6.329,1.023,1.325.265,2.587.857,3.914,1.105,2.46.461,4.956.728,7.419,1.171,2.534.455,5.051,1.433,7.569,1.412a24.45,24.45,0,0,1,5.452.812c1.775.377,3.6.546,5.4.771,1.924.24,3.976.1,5.751.739,2.392.859,4.83.5,7.224.9,4.066.67,8.191.964,12.286,1.467,2.195.269,4.372.685,6.567.957,1.843.229,3.7.315,5.55.519,3.2.353,6.389.785,9.589,1.114,3.184.328,6.376.562,9.564.855.809.074,1.609.249,2.419.32,2.616.231,5.236.416,7.851.653,3.411.31,6.813.735,10.229.955,2.457.158,4.934-.011,7.4.1,2.893.131,5.777.453,8.669.605,1.725.09,3.463-.051,5.19.026,3.916.174,7.838.308,11.739.673,2.387.223,4.744-.151,7.169.065a95.1,95.1,0,0,0,9.942.254c6.017-.1,12.038.009,18.057-.042,4.032-.034,8.062-.219,12.093-.294,3.931-.073,7.864-.079,11.8-.144,2.567-.042,5.136-.1,7.7-.222,1.73-.085,3.453-.326,5.182-.447.562-.039,1.134.116,1.7.12.6,0,1.193-.065,1.789-.1.736-.049,1.47-.129,2.207-.146a46.378,46.378,0,0,1,6.146-.036,15.258,15.258,0,0,0,4.015-.43,15.1,15.1,0,0,1,2.008.049c2.736-.016,5.474.008,8.207-.089,2.55-.09,5.093-.391,7.643-.464,3.734-.107,7.472-.063,11.207-.147,1.353-.03,2.7-.351,4.054-.352,3.764,0,7.361-1.4,11.217-1.01,2.217.224,4.535-.6,6.814-.913q4.741-.649,9.491-1.233c5.971-.729,11.941-1.467,17.92-2.127,1.849-.2,3.726-.131,5.586-.255.816-.054,1.615-.321,2.431-.43q8.268-1.1,16.539-2.165c2.459-.313,4.923-.618,7.394-.815,1.5-.119,3.048.135,4.535-.067,1.613-.218,3.161-.9,4.773-1.152,3.693-.587,7.406-1.057,11.118-1.517.392-.049.832.292.955.339.774-.306,1.482-.874,1.947-.718,1.439.483,1.71-.349,2.071-1.364.092-.26.786-.6.922-.5,1.518,1.07,2.98,2.219,4.457,3.347l-.177.42h-1.676l.9,1.219a43.559,43.559,0,0,1-13.075,3.613c-2.577.306-5.1,1.069-7.655,1.556-1.829.348-3.686.55-5.52.871-3.2.559-6.382,1.25-9.6,1.719-4.238.617-8.514.978-12.746,1.629-3.356.517-6.654,1.4-10.006,1.954-5.073.839-10.168,1.54-15.255,2.29-3.889.573-7.782,1.114-11.669,1.7-2.467.373-4.914.9-7.39,1.189q-6.475.745-12.976,1.259c-4.728.37-9.467.589-14.2.912-4.038.276-8.074.592-12.109.916-3.514.283-7.021.652-10.538.89-2.713.183-5.437.192-8.154.333-2.773.143-5.541.374-8.313.526-1.855.1-3.713.117-5.569.2-4.729.21-9.455.464-14.185.651-6.23.246-12.46.527-18.693.647-9.522.182-19.046.22-28.568.358-3.489.051-6.976.3-10.464.3-3.21,0-6.419-.243-9.63-.289-2.138-.031-4.28.192-6.415.133-3.744-.1-7.487-.29-11.226-.522s-7.492-.6-11.241-.842c-2.4-.158-4.816-.109-7.209-.326-3.938-.356-7.858-.918-11.8-1.264-2.058-.181-4.148.017-6.21-.14-3.026-.23-6.035-.672-9.059-.934-3.5-.3-7.018-.489-10.524-.764-2.459-.193-4.922-.38-7.367-.7-2.143-.281-4.251-.847-6.4-1.1-2.353-.277-4.739-.268-7.1-.516-1.986-.209-3.949-.633-5.929-.911-1.208-.169-2.442-.167-3.642-.375-1.787-.31-3.539-.843-5.332-1.09-2.66-.365-5.35-.507-8.015-.846-2.262-.288-4.5-.77-6.762-1.071-1.532-.2-3.1-.144-4.624-.385-1.353-.213-2.653-.749-4-1.015-2.692-.531-5.4-1-8.1-1.44-1.151-.187-2.33-.2-3.487-.353-2.1-.278-4.478-.074-6.207-1.033-2.511-1.393-5.2-1-7.708-1.783-1.753-.55-3.413-1.394-5.163-1.957-1.6-.514-3.339-.646-4.866-1.3-.826-.352-1.424.9-2.277-.1-.463-.54-1.659-.429-2.511-.661-2.285-.624-4.563-1.276-6.843-1.917-.421-.119-.837-.256-1.261-.362-2.407-.6-5.089-.734-7.125-1.95-1.335-.8-2.724-.837-3.994-1.269a38.663,38.663,0,0,0-6.046-1.982c-.614-.1-1.26-.016-1.906-.132l1.36-.191a5.58,5.58,0,0,0-1.068-.517c-1.4-.255-2.828-.372-4.189-.748-.562-.155-.956-1.185-1.465-1.218-1.822-.116-3.15-1.51-5.425-1.618l1.3-.616a5.244,5.244,0,0,0-.92-.322c-.8-.11-2.172.809-1.941-1.173a12.24,12.24,0,0,0-2.143-.609,10.1,10.1,0,0,0-1.878-1.517c-.7-.338-1.655-.226-1.736-1.347,0-.056-.183-.158-.258-.141-2.5.569-3.157-2.507-5.3-2.7-.372-.034-.706-.489-1.054-.747l.811-1.526c-2.514.578-3.961-.908-5.237-2.461-1.563-1.9-3.4-3.671-4.029-6.177a17.216,17.216,0,0,1-.025-1.794,10.845,10.845,0,0,0-.538-1.7,9.655,9.655,0,0,1,.984-.853,3.742,3.742,0,0,1,.9-.329c-.324-.227-.632-.594-.978-.636-.278-.034-.605.325-.951.534-.71-1.758,1.28-1.523,1.892-2.313L1.4,168.01a7.089,7.089,0,0,0,1.3-2.175c.261-1.437,1.6-2.667.843-4.335-.124-.276.336-.812.516-1.232a3.925,3.925,0,0,0,.254-.7c.133-.618.263-1.239.342-1.866a3.91,3.91,0,0,0-.137-.928l1.642-1.78-.239-.329-1.139.362a1.486,1.486,0,0,1,.106-.447c1.393-2.2,3.567-3.485,5.656-4.878.463-.309.8-.813,1.281-1.083,1.711-.966,3.468-1.849,5.188-2.8a41.059,41.059,0,0,1,4.082-2.321,36.943,36.943,0,0,1,5.068-1.484c1.585-.4,3.2-.688,4.8-1.034,3.454-.748,6.9-1.557,10.364-2.228,1.466-.284,2.994-.232,4.482-.427,1.723-.226,3.426-.615,5.151-.819,1.128-.134,2.283-.023,3.421-.1,1.635-.107,3.268-.256,4.9-.439.8-.09,1.583-.363,2.384-.434,1.573-.138,3.153-.217,4.731-.272,1.532-.053,3.067-.066,4.6-.056,1.109.007,2.218.115,3.327.118,2.606.008,5.214-.067,7.819-.018,1.938.036,3.873.288,5.811.305,2.047.018,4.1-.129,6.145-.2.329-.011.659-.021.988-.011,1.282.04,2.563.09,3.844.13.162.005.337-.078.485-.039,3.537.937,7.131.029,10.7.331a89.03,89.03,0,0,0,9.686.183c3.188-.079,6.367-.435,9.555-.6.8-.041,1.613.314,2.408.268,1.407-.08,2.8-.4,4.206-.492,3.091-.21,6.189-.311,9.281-.518,5.531-.369,11.054-.872,16.588-1.144,2.882-.141,5.784.176,8.674.125,2.5-.044,5-.323,7.507-.481,1.817-.114,3.642-.131,5.451-.315,1.736-.177,3.45-.578,5.187-.746a5.153,5.153,0,0,1,1.737.437c.267-.189.554-.559.873-.589a39.311,39.311,0,0,0,4.009-.252,24.275,24.275,0,0,1,5.913-.2c1.46.061,2.94-.594,4.426-.848,1.952-.334,3.92-.573,5.877-.88,2.062-.323,4.117-.685,6.178-1.016,2.407-.386,4.827-.7,7.219-1.159,1.07-.206,2.071-.746,3.133-1.026a3.683,3.683,0,0,1,1.222-.023c1.485-.337,2.589-.531,3.658-.843,2.3-.672,4.575-1.417,6.868-2.11,2.065-.624,4.133-1.239,6.21-1.821,3.226-.9,6.588-1.478,9.64-2.782,1.589-.679,3.347-.511,4.905-1.7s3.873-1.4,5.831-2.107a26.366,26.366,0,0,0,2.588-1.207c4.722-2.309,9.439-4.631,14.169-6.923.478-.232,1.1-.191,1.544-.46,1.041-.629,2.01-1.374,3.015-2.064,2.13-1.462,4.307-2.861,6.386-4.393,2.277-1.679,4.532-3.4,6.672-5.249,1.891-1.634,3.6-3.479,5.408-5.208.7-.666,1.454-1.268,2.407-2.092l-2.026-.823,1.1-1.5c-1.239.3-2.169.51-3.087.76-.173.047-.426.378-.435.369-1.029-1.023-1.934.17-2.86.125a27.335,27.335,0,0,1-4-.75c-.007.135.089.536-.068.717s-.577.182-.88.26l-.291-1.3-1.147.594-1.753-.475-.115.417.966.053c.01.126.02.253.03.379l-3.738-.34-.085-.42L288.8,87.876c-.849-2.146-2.567-.851-4.212-.9l.647.5-.181.368-1.284-.7c-.224.862-.536,1.444-1.617.495a1.746,1.746,0,0,0-1.655-.142,2.05,2.05,0,0,1-2.205.33,6.421,6.421,0,0,0-2.261.145c-.357-1.057-1.548-.316-2.541-.194-.178.022-.286.619-.452,1.011.03,0-.169.026-.174.007-.414-1.744-1.309-1.312-2.352-.573a2.826,2.826,0,0,1-1.457.6,4.789,4.789,0,0,1-1.547-.538l.04-.611-1.493,1.137-.607-.334-2.263.869.236-.465-1.068-.938L260.3,88.969l1.219.13-.054.484-2.684-.53c-.227.666-2.633,1.436-3.3.906-1.047-.833-1.718-.783-2.527.256l-.885-.795c.043,2.609-2.579-.661-2.619,1.689-.875-1.025-1.2-2.066-2.506-.784-.755.741-2.481.5-3.774.675a.9.9,0,0,1-.528-.21c-.262-.179-.5-.4-.746-.6a6.232,6.232,0,0,1-.113.883c-.036.137-.2.24-.433.49l-.672-1.5c-.6.484-1.116,1.207-1.713,1.285-.551.072-1.193-.548-2.153-1.05l.677.97c-1.778-.783-3.686,1.6-5.431-.186a6.488,6.488,0,0,1-3.836.6c-1.756-.39-3.728.249-5.611.355a19.213,19.213,0,0,1-2.948-.141c-.163-.016-.293-.373-.568-.75l-1.556-.168-.682,1.31c-.225-.615-.309-1.2-.469-1.227a21.272,21.272,0,0,0-4.27-.351c-1.649.118-3.285,1.939-4.818-.111-.258.315-.494.819-.685.8-1.695-.145-3.377-.443-5.073-.571-1.167-.088-2.363.141-3.522.015-1.252-.136-2.551.117-3.773-.52-.4-.209-1.061.087-1.6.142-.293.03-.785.155-.852.041-.7-1.192-1.336-.59-2.112.263-.25-2.437-2.157-1.615-3.369-1.889a40.582,40.582,0,0,0-5.6-.553c-1.391-.114-3-.69-4.12-.187-1.435.644-2.511-.263-3.7-.064a15.725,15.725,0,0,0-3.414,1.09c-.2.082-.293.868-.151,1.211,1.09,2.63,2.467,5.161,3.335,7.858a101.421,101.421,0,0,1,2.5,10.07,18.916,18.916,0,0,1,.522,5.326c-.13,1.635-1.029,3.083-2.533,3.164-.555.931-.862,1.556-1.271,2.105-.457.614-1.623.612-1.291,1.962.118.481-1.012,1.043-1.595.145a52.18,52.18,0,0,1-3.147-5.212c-2.068-4.2-4.067-8.409-6.938-12.152-1.625-2.119-2.755-4.752-4.731-6.413-1.062-.893-.849-3.066-2.959-2.943-.4.023-.79-1.263-1.318-1.817-.739-.774-1.607-1.422-2.413-2.132-.681-.6-1.351-1.213-2.194-1.972-1.476.679-1.175-1.411-2.063-1.931-.371-.218-.682-.719-1.042-.742-1.1-.069-1.9-.322-1.937-1.618a.72.72,0,0,0-.279-.549c-.963-.437-1.934-.863-2.929-1.221-1.291-.465-2.589-.932-3.916-1.27a9.321,9.321,0,0,0-2.9-.359,4.587,4.587,0,0,1-4.683-2.826c1.381-2.77,4.092-2.437,6.547-2.685l-.153-.494-1.28-.056,1-2.355h-.855c-.305-1.042-.543-1.93-.83-2.8-.165-.5-.274-1.232-.64-1.43-1.5-.813-2.293-2.348-3.732-3.319-1.968-1.329-4.608-2.336-5.13-5.239-.227-1.263.278-2.112,1.5-2.237,2.245-.229,2.467-.659,1.442-2.68a6.4,6.4,0,0,1-.318-1.265l3.013.828c-.146-1.12-.255-1.956-.363-2.791C125.642,50.987,125.536,50.646,125.429,50.305ZM316.449,112.3c-1.911.494-2.485,2.43-3.778,3.67a8.15,8.15,0,0,0,3.039-1.487,6.408,6.408,0,0,0,1.054-2.17c.334-.161.678-.475,1-.455,1.289.083,1.691-.2.74-1.338-.1-.123.061-.468.145-.968l-2.528,1.785Zm2.25-3.359.285.532c1.44-.4,3.278-.138,3.61-2.392.022-.146.265-.288.434-.379a7.721,7.721,0,0,0,1.4-.726,43.984,43.984,0,0,0,4.074-3.758,8.434,8.434,0,0,0,1-2.666c.77-.071,2.359-1.57,2.723-2.936.16-.6.226-1.477.634-1.714,1.488-.865,2.276-1.8,2.088-3.728-.112-1.148.9-2.362,1.146-3.6.329-1.649.964-3.34.065-5.032a1.766,1.766,0,0,0-2.924-.626l.481,1.184a9.2,9.2,0,0,0-1.028,1.576c-.582,1.514-.992,3.1-1.62,4.59a25.941,25.941,0,0,1-2.581,5.243c-.876,1.208-1.584,2.265-1.467,3.291l-6.9,9.1,1.4.373c.018.12.037.24.056.36ZM149.191,87.3c-.526-.581-1.314-1.264-1.233-1.39.928-1.449-1.145-1.468-1.092-2.437a25.922,25.922,0,0,0-2.613.056c-.164.017-.271.568-.385.829l2.927,1.154c.542.994.893,1.689,1.329,2.327A8.142,8.142,0,0,0,149.191,87.3ZM18.771,165.482l-2.879,1.706.7-.483c.275.643.379,1.5.859,1.885.971.787,1.035-.877,1.8-.882ZM143.454,80.174c-.555-.467-.91-1.008-1.35-1.09-1.364-.251-.706,1.255-1.33,1.7l1.341,1.507ZM123.6,50.536c-.964-.346-1.471-.022-1.72.8a1.345,1.345,0,0,0,.409.965,15.872,15.872,0,0,0,2.113-.542c.452-.132.9-.283,1.348-.426l-.319-1.022C124.813,50.4,124.116,50.72,123.6,50.536Z" transform="translate(0 0)" fill="#ffa5f0"/></g></svg>