<svg xmlns="http://www.w3.org/2000/svg" width="115.979" height="184.198" viewBox="0 0 115.979 184.198"><g transform="translate(73.979 166.917) rotate(98)"><path d="M8.595,18.633c-.036.147-.154.347-.1.434a15.732,15.732,0,0,1,1.581,3.313c.02.057.082.1.128.152a.851.851,0,0,0,.182-.077c.654-.5.671-.509,1.041.206.228.441.4.914.6,1.406-.719.017-.92-.565-1-.959-.105-.509-.31-.506-.712-.447.385.952.764,1.875,1.132,2.8.268.676.536,1.352.777,2.038.873,2.476,1.745,4.952,2.594,7.437.378,1.106.688,2.234,1.047,3.347.241.744.5,1.485.79,2.21.055.138.3.2.556.35l-.425.021.615,1.73.184-.043v-.459c.447-.186.671-.233.643.421a3.4,3.4,0,0,0,.492,1.276l-.893.143v.574l.922-.229c.244.648.456,1.185.649,1.729a5.014,5.014,0,0,1,.212.788c.016.089-.071.2-.127.338l.422.137-.177.362a6.307,6.307,0,0,1,.508.77c.158.339.26.7.383,1.059.171.493.321.993.514,1.477.24.6.54,1.178.756,1.787.056.159-.1.394-.167.612.36.04.613.262.665.888.041.5.492.955.725,1.447a2.888,2.888,0,0,1,.447,1.38c-.005.112.191.221.25.352q.4.876.765,1.766c.031.076-.021.185-.034.279.094-.015.251-.069.271-.038.12.193.208.405.33.6C26.2,62.4,27.858,64.454,28.989,66.8l-.145.082c.013.013.026.026.04.038,1.757,1.424,2.5,3.632,4.041,5.225.033.034-.053.182-.07.234.164.066.36.085.458.193.521.581,1.029,1.174,1.516,1.783.3.376.553.792.838,1.181.041.055.165.043.22.1a5.943,5.943,0,0,1,.933.934c.175.261.287.5.62.6.245.078.653.123.472.586a1.279,1.279,0,0,1,.445.161,7,7,0,0,0,1.529,1.131c.13.066.177.3.329.573a1.993,1.993,0,0,1,1.8.934,10.9,10.9,0,0,1,1.651.582,6.7,6.7,0,0,0,2.61.712c1.01.106,2.023.186,3.037.254a7.7,7.7,0,0,0,2.844-.575c.216-.069.434-.132.652-.191a2.909,2.909,0,0,0,1.364-.74,5.4,5.4,0,0,1,.951-.624c.989-.637,1.994-1.25,2.955-1.926a9.407,9.407,0,0,0,.98-1.017c.366-.354.785-.657,1.135-1.025A13.967,13.967,0,0,0,61.279,74.7c1.212-1.634,2.447-3.253,3.6-4.929.8-1.17,1.476-2.43,2.22-3.642.8-1.307,1.63-2.6,2.426-3.911.263-.433.44-.919.7-1.355.171-.289.454-.514.618-.806.131-.233.124-.541.239-.787.471-1.009.982-2,1.446-3.011.551-1.2,1.091-2.407,1.595-3.628.57-1.381,1.107-2.776,1.634-4.174.572-1.516,1.094-3.05,1.684-4.559a14.163,14.163,0,0,1,.771-1.295c.306-.585.587-1.186.846-1.793.219-.512.363-1.056.591-1.563q.588-1.308,1.244-2.585c.509-.989,1.035-1.97,1.585-2.937q1.173-2.059,2.4-4.088c.493-.815,1.045-1.594,1.55-2.4.539-.862,1.018-1.763,1.591-2.6.447-.655,1.008-1.233,1.5-1.863.2-.26.314-.589.517-.847.5-.638,1.267-1.18,1.489-1.9a5.574,5.574,0,0,1,1.269-1.874c1.012-1.249,2.115-2.426,3.171-3.64.381-.438.7-.938,1.11-1.341.809-.789,1.672-1.524,2.5-2.3.206-.192.339-.462.544-.655.377-.355.791-.67,1.173-1.02.4-.369.763-.79,1.187-1.133.577-.466,1.241-.83,1.786-1.327.638-.582,1.571-.661,2.123-1.442.283-.4.98-.505,1.483-.758a4.871,4.871,0,0,0,.612-.386c.232-.164.349-.44.777-.293s.428-.246.331-.616l1.636-.331L111.19,2.8h-.339l-.013-.108c.13-.027.328-.123.378-.072.373.379.733.084,1.048-.039.955-.373,1.868-.855,2.832-1.2.87-.309,1.826-.392,2.67-.75a9.147,9.147,0,0,1,3.961-.62,6.172,6.172,0,0,1,1.722.28,19.325,19.325,0,0,1,2.27.977c.185.089.294.335.443.516.847-.261,1.4.364,1.91.826a24.978,24.978,0,0,1,2.674,2.872,13.854,13.854,0,0,1,1.177,2.134,1.848,1.848,0,0,0,.12.219,10.423,10.423,0,0,1,.994,1.381c.381.763.628,1.591.981,2.37.244.538.6,1.023.852,1.559.38.817.731,1.649,1.056,2.489.369.954.725,1.915,1.032,2.89.264.836.446,1.7.681,2.544.034.123.193.206.246.328.249.569.491,1.143.707,1.725.022.058-.151.188-.151.188a7.871,7.871,0,0,1,.613,1.444c.062.283-.113.606.266.79a.311.311,0,0,1,.142.239,6.349,6.349,0,0,0,.867,2.993,4.278,4.278,0,0,1,.189.961.808.808,0,0,0,.1.357,3.049,3.049,0,0,1,.8,1.874c.01.193.337.35.437.562a6.992,6.992,0,0,1,.336,1.015c.036.122.023.258.055.382.057.219.132.434.192.628.084.187.163.358.237.532.16.377.329.751.472,1.134.366.977.711,1.96,1.081,2.936.193.51.44,1,.62,1.513a4.325,4.325,0,0,1,.106.864c.316.111.607.342.152.847l.454.039a1.018,1.018,0,0,0,.32,1.266c.169.128.191.46.252.706.009.036-.138.111-.111.09.164.43.334.812.455,1.209a6.691,6.691,0,0,0,.5,1.717,6.452,6.452,0,0,1,.77,1.733c.062.205.36.379.352.558-.025.569.336.991.453,1.441.129.5.945.81.486,1.476-.024.034.138.209.229.3.05.052.169.058.195.113a8.257,8.257,0,0,1,.708,1.632,15.691,15.691,0,0,0,1.342,2.886c.555,1.274,1.233,2.487,1.769,3.771.506,1.214,1.105,2.388,1.735,3.732.513-1.15.931-2.139,1.394-3.106.211-.441.688-.822.731-1.261.07-.7.546-1.157.785-1.743.119-.291.423-.5.576-.783.168-.311.22-.685.393-.993a5.805,5.805,0,0,1,.65-1.088,2.434,2.434,0,0,0,.3-.82l.241.155c.042-.082.086-.163.124-.248.1-.215.187-.431.28-.646l.2.038-.153-.233c.962-1.273,1.885-2.543,2.859-3.772,1.092-1.378,2.229-2.72,3.3-4.017l-.415-.741.783.363-.258-.643.513.059c.089-.959,1.324-.67,1.586-1.492l-.314-.14c.049-.07.065-.115.1-.133.362-.214.724-.429,1.092-.633a9.841,9.841,0,0,1,1.066-.555c.14-.057.34.035.683.084-.228.35-.357.738-.625.923a1.471,1.471,0,0,0-.684,1.716l-.737.621c.66.283,1.159.526,1.679.708.319.112.675.436,1.019-.018a.876.876,0,0,1,.5.249.82.82,0,0,1,.19.629,4.167,4.167,0,0,1-.584.863l.672.109c-.028.105-.026.243-.094.319a1.39,1.39,0,0,1-.473.388c-.205.081-.442-.1-.49.375-.027.266-.459.6-.63.988a11.686,11.686,0,0,1-.888,1.547c-.274.428-.593.828-.966,1.344l.743.049-1.5,2.44a1.346,1.346,0,0,0-.359-.182c-.113-.026-.31,0-.361.077-.24.362-.43.756-.663,1.123-.258.406-.556.787-.813,1.195-.3.478-.576.972-.889,1.5l.637.061.072.2c-.178.059-.353.125-.533.176-.481.136-.43.521-.347.853.138.553-.107.918-.727.9l.277-.387a1.745,1.745,0,0,0-1,1.675l.228-.4.156-.012c0,.136.008.273,0,.408-.015.2-.043.4-.066.6l-.7.349a.6.6,0,0,1,0,1.064,3.207,3.207,0,0,1-.575.145c.456.785.456.785-.451,1.734.1.11.3.29.289.311a5.212,5.212,0,0,0-.527,1.512c-.227.654-.434,1.314-.675,1.963q-.335.9-.727,1.787c-.1.235.011.469-.136.738-.207.38-.134.9-.289,1.324-.088.239.109.856-.558.653-.005,0-.088.252-.159.455l.409-.122-.95,3.492.13.046-.374.288.7,3.148-1.324.3.044.189.411-.077.052.2-.692.186-.181.355.749.515-.626.242.168.678-.541.167.571.382-.347.161.19.033a2.676,2.676,0,0,1-.127.9c-.21.395-.475.716-.061,1.142.07.072-.019.308-.05.465-.062.307-.263.833-.182.88.438.253.241.622.191.889a6.633,6.633,0,0,1-.506,1.534.649.649,0,0,1-.584.237.73.73,0,0,0-.863-.04c-.58.31-.923-.194-1.184-.443-.634.489-1.375-.043-1.822.271l-.795-.5a2.945,2.945,0,0,1-.345.981,1.845,1.845,0,0,1-.845.36,2.22,2.22,0,0,1-.789.152c-1.411-.109-1.666-1.353-2.1-2.324-.242-.544-.487-1.1-.7-1.651a9.988,9.988,0,0,0-1.43-2.273,23.9,23.9,0,0,0-2.165-2.388c-1.389-1.44-2.809-2.85-4.193-4.294-.71-.741-1.346-1.554-2.062-2.289-1.425-1.464-2.9-2.877-4.32-4.348-1.24-1.287-2.425-2.628-3.641-3.938-1.021-1.1-2.084-2.163-3.071-3.293-.887-1.015-1.688-2.1-2.539-3.151-.51-.627-1.063-1.219-1.562-1.853-1.111-1.413-2.233-2.818-3.288-4.272s-2.071-2.957-3.05-4.473c-.525-.813-.935-1.7-1.4-2.552-.534-.974-1.073-1.946-1.615-2.928l1.272-1.368c-.082-.1-.27-.3-.252-.323.193-.228.42-.427.626-.649.176-.186.442-.558.512-.524a2.421,2.421,0,0,1,.755.621c1.179,1.386,2.338,2.788,3.509,4.181.809.962,1.619,1.924,2.444,2.873.7.8,1.438,1.572,2.126,2.385.428.506.779,1.077,1.194,1.594a5.711,5.711,0,0,0,.7.629c-.751.537-1.009-.258-1.577-.346l1.019,1.31.292-.2-.021-.021a3.006,3.006,0,0,0,.15.61c.32.668.732.7,1.209-.019l.6.655-.681.327c.134.218-.2.885.566.671l.114-.778.222-.075a15.89,15.89,0,0,1,1.178,1.289c.457.618,1.281.934,1.458,1.777l.019-.018c-.646-.162-1.011.029-.888.466a1.547,1.547,0,0,0,1.408.976l-.023-.021.146.338-.325.1a10.426,10.426,0,0,0,1.133,1.312c.164.14.57,0,.866-.017l.037-.2a4.045,4.045,0,0,1-.567-.454,3.557,3.557,0,0,1-.356-.594c.209-.071.414-.156.628-.207a.952.952,0,0,1,.314.032c.023.464.139.782.672.905.227.052.356.467.56.69a8.948,8.948,0,0,0,.795.759c.215.183.462.329.69.5.152.112.352.2.434.357.2.371.65.456.855.727.434.575,1.176.8,1.548,1.3.669.9,1.8,1.258,2.34,2.269.157.3.534.473.8.719.04.037.005.152.005.272a.64.64,0,0,1,.874.357c.242.426.786.678,1.195,1.011.248.2.5.4.732.62.847.8,1.685,1.612,2.534,2.411.04.038.158-.006.34-.019-.992-1.606-1.307-3.474-2.445-4.912a3.587,3.587,0,0,0-.07-.467c-.122-.428-.258-.853-.392-1.278a1.614,1.614,0,0,0-.1-.22c-.573-1.167-1.158-2.328-1.716-3.5-.339-.712-.651-1.438-.952-2.167-.442-1.07-.87-2.147-1.293-3.225s-.827-2.161-1.25-3.238a2.672,2.672,0,0,0-.286-.445c.03-.108.155-.3.106-.413-.411-.956-.872-1.892-1.284-2.848q-.575-1.334-1.081-2.7c-.229-.622-.387-1.27-.592-1.9-.4-1.232-.827-2.455-1.217-3.69-.359-1.137-.668-2.289-1.03-3.425-.395-1.237-.823-2.463-1.242-3.691-.586-1.72-1.2-3.429-1.754-5.16-.358-1.125-.584-2.293-.939-3.42-.461-1.464-1.014-2.9-1.482-4.36-.286-.893-.468-1.819-.733-2.719a16.567,16.567,0,0,0-.66-1.846c-.242-.565-.49-1.122-.688-1.707-.084-.248-.38-.425-.627-.685l.526.092-2.754-6.2.275.051c-.01-.061,0-.113-.023-.125a1.883,1.883,0,0,1-1.074-1.68c.008-.316-.021-.594-.477-.574-.106,0-.453-.2-.117-.46a.224.224,0,0,0,.023-.218c-.34-.371-.63-.875-1.056-1.06a4.189,4.189,0,0,0-2.542-.428,6.785,6.785,0,0,1-1.242,0,.549.549,0,0,0-.3.1c-.361.268-.58.113-.829-.31l3.228-.172c-1.441-.909-2.564-.053-3.669.254a5.494,5.494,0,0,1,.467.631c.022.039-.217.293-.243.279a3.453,3.453,0,0,1-.483-.369c0,.5-.125.808-.809.768-.365-.021-.753.418-1.138.635-.652.367-1.3.737-1.971,1.069-.131.065-.345-.038-.519-.064-.023.606-.467.893-.9.663a3.107,3.107,0,0,1-.47.6c-.97.752-2.019,1.382-2.931,2.235-.513.48-1.066.937-1.57,1.443-.091.091-.312.037-.445.1s-.29.193-.3.3c-.014.277-.062.368-.284.378-.165.007-.4.017-.479.121-.6.806-1.177,1.636-1.78,2.488l-.241-.145-.751.964-.18-.112.1.424c-.067.063-.1.121-.128.117-.349-.042-.5.145-.634.443a1.474,1.474,0,0,1-.56.734c-.71.317-.882.974-1.24,1.548-.267.429-.573.86-.883,1.274q-.807,1.08-1.66,2.126a6.757,6.757,0,0,1-.642.621c-.032.179-.008.4-.108.529-.291.359-.637.673-.95,1.015a2.745,2.745,0,0,0-.179.322,3.237,3.237,0,0,1-.466.562c-.225.393-.472.774-.668,1.181a1.981,1.981,0,0,1-.979.989c-.036.017.019.232.044.476l-.8,1.137.123.1-.58.159.233.489-.641.1c.193.458.038.755-.48,1.038a.378.378,0,0,0-.168.3c.149.9-.542,1.311-1.016,1.865a6.332,6.332,0,0,0-.566.975,5.978,5.978,0,0,0-.373.627c-.084.2-.072.438-.158.635-.236.539-.486,1.074-.761,1.593-.31.585-.646,1.158-.987,1.726-.269.449-.585.87-.834,1.329-.1.183-.041.445-.109.653-.3.932-.6,1.867-.957,2.782a8.741,8.741,0,0,1-.656,1.165c-.1.171-.21.335-.3.512-.263.541-.548,1.074-.765,1.632-.339.869-.62,1.76-.947,2.634-.084.225-.283.406-.37.63-.506,1.312-.995,2.631-1.49,3.947a.965.965,0,0,1-.1.224,5.763,5.763,0,0,0-1.081,2.338c-.025.137-.267.236-.429.369-.007.658-1.928,4.8-2.924,5.186l.227.264a6.394,6.394,0,0,1-.578.93c-.382.437-.369,1.147-1.091,1.383-.239.078-.283.667-.474.989C71.8,70.452,71.138,71.6,70.4,72.7c-.6.892-1.294,1.724-1.968,2.565-1.328,1.658-2.654,3.319-4.018,4.947a11.4,11.4,0,0,1-1.755,1.736A6.431,6.431,0,0,0,61.2,83.263c-.124.174-.54.14-.838.2l.238.225a19.338,19.338,0,0,1-10.661,4.655l.306-.849c-.214.118-.413.183-.409.232.047.586-.346.673-.763.64-.548-.042-1.089-.16-1.634-.24a1.024,1.024,0,0,0-.463-.034c-.681.259-1.281-.086-1.91-.217-.02,0-.037-.032-.055-.032a3.189,3.189,0,0,1-1.464-.394,8.571,8.571,0,0,0-1.654-.316,4.921,4.921,0,0,1-.915-.436l-.047.19-.5-.633c-.618.613-.781-.095-.967-.285-.4.082-.755.276-.941.169-.412-.235-1.179-.168-1.077-.833a4.475,4.475,0,0,1-1.024-.361c-.723-.481-1.409-1.017-2.1-1.547-.088-.067-.106-.228-.148-.349-.024-.068,0-.176-.047-.209-.6-.453-1.2-.9-1.8-1.341a4.142,4.142,0,0,1-.392-.3c-.554-.526-1.1-1.058-1.652-1.588-.03-.029-.089-.047-.095-.078-.186-.952-1.284-1.188-1.6-2.061-.13-.355-.521-.6-.742-.936-.914-1.366-1.8-2.748-2.713-4.116-.485-.728-1.037-1.414-1.484-2.164-.778-1.307-1.548-2.625-2.23-3.983-.926-1.843-1.853-3.694-2.622-5.606-1.061-2.638-1.982-5.333-2.946-8.01-.353-.98-.7-1.966-.969-2.969-.481-1.769-.9-3.556-1.356-5.332-.416-1.613-.857-3.22-1.275-4.833-.317-1.222-.6-2.454-.925-3.673-.461-1.723-.912-3.45-1.437-5.153-.393-1.276-.9-2.517-1.35-3.776-.4-1.108-.742-2.236-1.177-3.328q-.854-2.14-1.821-4.235c-.669-1.456-1.4-2.881-2.1-4.327-.619-1.294-1.244-2.585-1.814-3.9C1.137,9.991.7,8.824.269,7.66A5.2,5.2,0,0,1,0,6.533c-.012-.087.193-.221.318-.3.217-.144.45-.265.762-.444a5.027,5.027,0,0,1,.433.676C1.983,7.471,2.4,8.5,2.894,9.5a5.14,5.14,0,0,0,.757.924l.15-.086L2.768,8.43l.2-.128c.333.482.669.962,1,1.447,1.083,1.588,2.194,3.158,3.232,4.775a25.7,25.7,0,0,1,1.172,2.324,1.224,1.224,0,0,0,.23.248l-.536.194v-.847l-.77.137a1.823,1.823,0,0,0,.2.531C7.93,17.575,7.972,18.313,8.595,18.633Zm4.3,18.658c.131.7.256,1.4.4,2.1.011.051.167.072.255.107a.96.96,0,0,0,.06-.331,4.19,4.19,0,0,0-.217-.831c-.146-.352-.343-.683-.518-1.023a8.031,8.031,0,0,0-.118-1.016c-.178-.739-.4-1.468-.6-2.2l-.262.074ZM128.066,5.4c.316-.351-.183-.551-.234-.553a6.686,6.686,0,0,0-1.11.121l.741.737.047-.325a1.675,1.675,0,0,1,.394-.1c.057,0,.11.08.165.123l.057.567-.452-.07-.071.13.907.583.7-1.092Zm17.466,44.188a3.762,3.762,0,0,0,.4-1.568c-.514-.144-.663-1.03-1.4-.687l.233.854.7.142a2.477,2.477,0,0,0-.093.435c-.012.324,0,.649,0,.973.389.67.619.743,1.3.276-.247-.073-.42-.188-.53-.144C145.823,50.007,145.671,49.841,145.533,49.593ZM39.175,80c.017-.257-.713-.107-.313-.573a2.091,2.091,0,0,0-.262-.143c-.1-.039-.231-.029-.313-.088a1.774,1.774,0,0,1-.273-.314l-.166.4-.123.014-.141-.862L36,78.352l-.03.236,1,.159-.225.5.469-.078c.113.2.156.391.272.473a6.3,6.3,0,0,0,1.041.612,2.053,2.053,0,0,0,.66.06c.344.934.745,1.129,1.385.677l-.988-1.066ZM123.38,1.7c.025.3.049.6.08.971l.451-.238,1.924,1.355.478.784.613-.406-.021.215.828.246c-.374-.816-1-1.136-1.414-1.636a6.64,6.64,0,0,0-2.146-1.277,1.7,1.7,0,0,0-.661-.036c-.072-.124-.132-.345-.217-.355-.543-.062-1.091-.076-1.638-.109-.153-.009-.306-.028-.458-.042a5.546,5.546,0,0,0,.978.556c.325.2.574.292.849-.058C123.067,1.619,123.258,1.688,123.38,1.7ZM136.8,26.025l2.289,6.635,1.093.382-.222-1.118-.11.211c-.177,0-.353.006-.53,0-.017,0-.034-.053-.051-.082l.268-.127c-.109-.052-.183-.087-.257-.124a1.518,1.518,0,0,0,.356-1.6c-.267-.526-.56-1.039-.765-1.417-.04-1.228-.853-2.09-.954-3.159l-.206-.005-.152.6Zm-2.659,39.233-1.8-.464-.077.141,3.236,3.025.21-1.493-.85.569.237-.4-1.2-1.1ZM131.156,10.71c-.027.377-.047.665-.067.954a3.907,3.907,0,0,0,.941-.094.8.8,0,0,0,0-.651,7.16,7.16,0,0,0-.921-.88l.335-.44-1.8-1.266c.063.437.014.788.165.946s.5.124.748.171l-.183,1.043Zm1.218,2.864c.149-.348.231-.6.359-.827.215-.38.141-.533-.315-.636a2.422,2.422,0,0,1-.373-.193c-.353-.152-.633-.117-.752.247l1.007.24c0,.063-.008.126-.012.189l-.718.088C131.655,13.183,131.719,13.726,132.373,13.574ZM35.317,76.985a6.7,6.7,0,0,0-.63-1.081,4.3,4.3,0,0,0-.853-.613l-.22.288.908.794.187,1Zm106.443-39.6-.055-.142h-.745l.247-1.055h-1l.448.162c-.374.635.2,1,.332,1.541Zm-5-14.154a1.3,1.3,0,0,1-.322.051,5.325,5.325,0,0,1-.616-.083,3.291,3.291,0,0,1,.36.657c.173.64.217.667.754.383Zm8.129,22.5-.232.068-.385,1.361.9-.214ZM129.348,7.34a2.157,2.157,0,0,0,.262-.582c.008-.078-.19-.178-.294-.267-.08.2-.147.4-.243.585a4.752,4.752,0,0,1-.3.456.643.643,0,0,0,1.043-.077ZM43.059,83.082l1.509-.5C43.753,82.128,43.23,82.3,43.059,83.082ZM5.5,13.18l.158-.1-.879-1.264C4.552,12.257,4.841,12.758,5.5,13.18ZM40.693,81.4c.03.7.894.2.972.567l.554-.3-.047-.172c-.205-.033-.41-.082-.617-.1C41.305,81.391,41.053,81.4,40.693,81.4Zm95.333-13.877-.224.04.115.809.877-.171ZM51.881,87.1l-.118.147c.137.11.266.293.415.312.2.025.41-.1.62-.122.556-.05.821-.206.309-.711C52.792,87.417,52.411,87.534,51.881,87.1ZM36.746,77.7l-.346.15c-.043-.254-.034-.7-.138-.73-.558-.149-.652.205-.356.557C36.027,77.821,36.457,77.7,36.746,77.7ZM55.8,86.167c-1.16.041-1.16.041-1.228.724Zm90.4-34.731.037.219a6.277,6.277,0,0,0,.71-.175.329.329,0,0,0,.095-.259,4.311,4.311,0,0,0-.486-.32ZM121.631,3.4l.066-.232L120.1,2.591l-.079.215Zm13.92,17.962.131.026a7.424,7.424,0,0,0,.367-.845c.019-.061-.154-.226-.267-.271-.078-.031-.3.064-.3.1C135.487,20.7,135.525,21.029,135.551,21.358Zm-5.042,40.024c-.052.265-.234.517.183.723.185.091.228.471.336.719l-.023-.021,1.147.185a3.363,3.363,0,0,0-1.662-1.589Zm-4.838-4.438c.093.086.219.155.273.261.226.446.49.363.88.032l-1.05-.947-.084.674ZM9.55,19.137c-.1-.353-.132-.557-.207-.746-.083-.211-.2-.409-.3-.612l-.286.834Zm.563,1.044c-.151-1.055-.257-1.162-.738-.842l.418.857Zm7.314,19.682a.4.4,0,0,0-.351-.056c-.2.261.283,1.016.681,1.068C17.651,40.532,17.563,40.188,17.427,39.862Z" transform="translate(-158.346 -20.159)" fill="#5a32fa"/></g></svg>