<svg xmlns="http://www.w3.org/2000/svg" width="80.931" height="101.793" viewBox="0 0 80.931 101.793"><path d="M80.167,55.141l-.475.611c1.309-.013.41.925.73,1.373l-1.192.43a5.494,5.494,0,0,0,.916,1.037c.827.535,1.072,1.319.383,2-1.371,1.363-2.812,2.657-4.256,3.945-1.525,1.36-3.071,2.7-4.567,4.09-1.646,1.535-3.388,2.971-5.142,4.383-1.977,1.593-3.932,3.239-6.051,4.625a24.639,24.639,0,0,1-5.693,3.284,18.056,18.056,0,0,0-2.9,1.807c-2.029,1.15-4.064,2.3-6.145,3.347-3.025,1.529-6.138,2.887-9.13,4.476q-5.23,2.779-10.3,5.849c-2.069,1.25-3.983,2.756-5.983,4.123-.655.448-1.363.818-2.12,1.267l-.554-.659L19.4,99.713c-1.04-.057-1.993-.124-2.948-.149-.223-.006-.449.2-.674.2-.532,0-1.065-.066-1.6-.1.1-.629-.742-1.3.117-1.914.27-.194.391-.585.618-.854a1.7,1.7,0,0,1,.919-.615c.094-.3.1-.687.3-.894,3.676-3.9,7.308-7.846,11.11-11.621a32.3,32.3,0,0,1,3.739-3.2c1.078-.783,2.375-1.26,3.475-2.018A25.758,25.758,0,0,0,36.8,76.429c.082-.073.3.025.409-.038a8.156,8.156,0,0,0,1.442-.932c.719-.664.788-2.181,2.348-1.72.077.023.254-.149.325-.266,1.32-2.19,3.8-2.911,5.653-4.426,2.286-1.866,4.751-3.515,7.132-5.265,2.222-1.634,4.472-3.233,6.644-4.931,1.571-1.228,2.969-2.683,4.574-3.86a14.913,14.913,0,0,1,2.988-1.3c.175-.075.311-.238.483-.32.563-.268,1.232-.841,1.684-.706.885.262.962-.306,1.259-.753a.9.9,0,0,1,.352-.365,43.862,43.862,0,0,1,4.838-1.7,9.6,9.6,0,0,1,2.86.178c-.1.975-.15,2.007-1.206,2.656-.171.1-.186.837,0,1.065A11.611,11.611,0,0,0,80.167,55.141ZM52.506,78.306c-1.278.716-2.458,1.341-3.592,2.041a1.043,1.043,0,0,0-.377.851c.025.206.534.567.639.51.292-.159.479-.505.721-.765.29-.31.549-.76.906-.866.327-.1.766.183,1.353.354-.171-.647-.222-1.2.62-.946ZM32.854,89.273,32.111,89v.965a9.652,9.652,0,0,0-1.078.65c-.057.044.09.352.143.538a5.254,5.254,0,0,0,1.03-.349c1.07-.625,2.352-.981,3.184-2.5l-2.3.481ZM57.585,76.511c-.576-.786-1.2-.73-1.928-.215-.918.65-1.868,1.254-2.8,1.878l.1.233.985-.364.963.832-.466-1.383,1.029-.268c-.014.319-.023.516-.031.683ZM45.048,82.667c.766.555.766.555,2.987-.618a3.092,3.092,0,0,0-1.162.034C46.242,82.245,45.629,82.477,45.048,82.667Zm18.216-9.809.484-.312c-1.314.036-.923-.437-.594-.906-1.461.589-1.461.589-1.216,1.411Zm11.426-10.4L76.9,60.7C75.806,60.511,74.561,61.537,74.69,62.455ZM30.754,91.514l-.179-.338c-.337.5-1.45-.3-1.434,1.151ZM71.538,65.78l.546-1.47-.222-.2L70.5,65.591ZM69.585,7.7l1.225-.072.135,1.3-.426.365.077.374c.943,0,1.886-.013,2.829.006a4.781,4.781,0,0,1,1.153.144c.49.134.867.269.345.928a21.975,21.975,0,0,0-1.833,2.867c-.44.779-.772,1.617-1.2,2.533l-.616-.723c-.045.651-.078,1.123-.111,1.595l.3.051.85-.758.289.234c-.443.615-.866,1.246-1.333,1.842-1.442,1.838-2.857,3.7-4.365,5.482-2.178,2.575-4.419,5.1-6.666,7.612-.191.213-.63.213-.959.292-.292.07-.591.111-.887.165l.08.38,1.335-.292a6.355,6.355,0,0,1-.98,1.532c-1.21.965-1.8,2.387-2.783,3.516-.833.96-1.708,1.887-2.487,2.889-.608.782-1.042,1.7-1.651,2.481-1.531,1.963-3.07,3.924-4.7,5.8-.992,1.145-2.212,2.09-3.231,3.215-1.124,1.24-2.106,2.607-3.212,3.864a5.706,5.706,0,0,1-1.434.815c-.111,1.376-1.225,2.3-2.641,3.134.015-.319.026-.545.037-.775-.085.024-.17.021-.207.062-1.068,1.169-2.14,2.336-3.191,3.521-.386.435-.868.877-.483,1.56-.5.017-.975.106-.57.659a4.007,4.007,0,0,0-1.07.631C30.076,66.244,29,67.6,27.881,68.975l.926.722-2.105.82.059.266,1.275-.078-2.321,2.8-.123-.193c-.03.271.032.605-.1.8a168.969,168.969,0,0,1-10.576,14c-1.023,1.194-2.44,1.834-3.422,3.019-.131.158-.525.1-.8.137-.01-.221-.032-.442-.027-.663a3.206,3.206,0,0,0,.042-.824,5.9,5.9,0,0,1,1.052-5.025c1.519-2.246,3.014-4.515,4.381-6.855,1.426-2.442,2.614-5.022,4.042-7.463,1.463-2.5,3.011-4.963,4.666-7.342,2.222-3.194,4.539-6.324,6.9-9.421,2.563-3.369,5.274-6.626,7.817-10.01,2.787-3.71,5.454-7.509,8.173-11.269,1.592-2.2,3.127-4.448,4.8-6.59,1.232-1.581,2.708-2.972,3.947-4.548,1.167-1.485,2.174-3.1,3.238-4.663.579-.852.947-1.989,1.732-2.527,1.527-1.046,2.168-2.891,3.791-3.815.408-.232.475-1.047.882-1.3A7.255,7.255,0,0,0,68.126,6.92,8.187,8.187,0,0,1,70.784,5.17c.156-.088.67.089.7.213a1.057,1.057,0,0,1-.183.847C70.788,6.751,70.2,7.19,69.585,7.7Zm-39.49,50.21-.39-.2L24.264,65.6l.3.221a2.663,2.663,0,0,0,.463-.4c1.5-2.068,3.008-4.135,4.481-6.224A7.377,7.377,0,0,0,30.095,57.913Zm-4.388,8.238.366.276,4.784-6.311-.353-.26Zm7.436-11.978-.263-.206L30.4,57.062l.313.249A7.161,7.161,0,0,0,33.143,54.173Zm2.981-4.116.462.354,1.84-2.606-.305-.215ZM34.1,52.543l.174.226a14.818,14.818,0,0,0,1.378-1.134c.122-.124.009-.48,0-.73-.2.087-.473.119-.6.271C34.711,51.606,34.42,52.084,34.1,52.543ZM68.956,18.4l-.07.446,1.118.44.27-.959ZM23.141,11.125c-.175-.438-.494-.941.424-1.24.322-.1.464-.836.638-1.3a29.311,29.311,0,0,1,1.121-3.066C26.277,3.653,27.36,1.853,28.4,0c.746.555.746.555.718,2.934,2.112.562,2.062.951,1.474,3.407-.3,1.26-.628,2.514-.966,3.764-.036.132-.228.222-.348.331l.125.268c.228-.118.614-.194.659-.361.345-1.286.6-2.6.942-3.883a3.058,3.058,0,0,1,.572-.834l.44.178c-.284,1.462-.486,2.946-.869,4.382-.946,3.548-1.917,7.092-2.994,10.6-.624,2.033-1.465,4-2.22,5.992-1.433,3.785-2.914,7.551-4.295,11.354-.853,2.35-1.478,4.782-2.346,7.126-1.259,3.4-2.663,6.752-3.969,10.138-.978,2.536-1.949,5.076-2.834,7.645-1,2.914-1.8,5.9-2.884,8.786-1.015,2.7-2.263,5.31-3.459,7.937-.7,1.546-1.5,3.051-2.276,4.564a9.859,9.859,0,0,1-.741,1.048c-.815-2.418-1.6-.261-2.344-.185-1.229-1.017-.744-2.22-.4-3.338C1.64,77.844,3.017,73.871,4.2,69.841c.731-2.491,1.163-5.067,1.8-7.589.455-1.817.983-3.618,1.552-5.4.243-.76.761-1.434.993-2.2.19-.623.04-1.346.213-1.978.747-2.713,1.541-5.414,2.357-8.107.184-.606.515-1.175,1.284-1.226-.206-.494-.626-1.013-.571-1.475a11.9,11.9,0,0,1,.794-2.372h.65l.023-.177-.836-.281c.505-1.281,1.392-2.546,1.414-3.826a14.058,14.058,0,0,1,1.192-4.755c1.589-4.24,3.381-8.4,5.069-12.609.245-.609.35-1.273.54-1.905a1.1,1.1,0,0,1,.271-.466,4.423,4.423,0,0,0,1.4-3.412C22.341,11.8,22.781,11.532,23.141,11.125Zm4.364,7.855-.112-.254c-.265.087-.7.108-.765.274-.268.678-.419,1.4-.622,2.106-.121.42-.258.835-.388,1.252C27.137,21.651,26.446,19.883,27.505,18.98ZM19.39,38.948c.961-.308,1.891-2.966,1.216-3.842Zm-2.042,8.021c-1.378.72-1.9,2.39-1.1,2.935Z" transform="translate(0.001)" fill="#00c4cc"/></svg>