<svg xmlns="http://www.w3.org/2000/svg" width="143.736" height="150.071" viewBox="0 0 143.736 150.071"><path d="M16.054,3.056a20.3,20.3,0,0,1-2.316-.208c-.466-.092-.934-.7-1.176.232a.263.263,0,0,1-.186.161c-1.213.01-2.425.007-3.634.007l.428-1.5,2.092.419L10.74.6C9.745.7,8.787.817,7.827.9A1.334,1.334,0,0,1,7.263.8C6.4.477,5.7-.548,4.527.378A12.326,12.326,0,0,1,5.651,2.255,1.228,1.228,0,0,1,5.3,3.384a5.473,5.473,0,0,1-3.432.774A5.447,5.447,0,0,0,0,4.778a4.789,4.789,0,0,1,.8,1.58c.064.78,1.66,1.154.507,2.257-.493.471.152,4.056.656,4.6.065.07.184.165.17.222-.634,2.546,1.055,4.713,1.177,7.138.014.272.3.53.618,1.044l-.255.631h.707a22.817,22.817,0,0,0,2.243,9.675,3.161,3.161,0,0,0-.274,1.16,40.059,40.059,0,0,0,.782,4.144,16.206,16.206,0,0,0,.94,2.282c-.267.153-.661.3-.647.382.2,1.109.443,2.21.693,3.309.031.136.211.245.227.377.127,1.09.207,2.187.36,3.273.037.266.292.5.446.751l.626-.411,4.35,3.875.32-.264a37.164,37.164,0,0,0,.382-6.7c-.168-1.5-.044-2.953-.125-4.423-.084-1.52-.158-3.04-.265-4.558-.086-1.219-.181-2.44-.341-3.651a4.265,4.265,0,0,0-.488-1.388c-.225-.426-.772-.774,0-1.209.1-.059.09-.4.063-.6-.226-1.7-.413-3.4-.739-5.076-.1-.49-.6-.9-1.008-1.474.728-1.346.544-2.64-.25-3.02l-1.214-6.593.316-.175c1.259,1.162,2.5,2.343,3.779,3.484,2.316,2.069,4.652,4.116,6.982,6.17,1.337,1.179,2.641,2.4,4.021,3.523,2.342,1.909,4.784,3.7,7.089,5.651,2.1,1.78,4.087,3.7,6.115,5.572,1.3,1.2,2.642,2.361,3.869,3.633q4,4.142,7.892,8.386c2.936,3.2,5.881,6.4,8.7,9.7,3.86,4.517,7.823,8.972,11.334,13.754a108.025,108.025,0,0,1,6.907,11.556,65.623,65.623,0,0,1,3.282,7.013c1.245,3.032,2.379,6.112,3.454,9.208a36.34,36.34,0,0,1,.868,3.89,5.383,5.383,0,0,0,.306.6c.121.323,1.168.477.214,1.057-.029.018.356.717.553,1.108-1.645.653-2.8-.39-3.918-1.3-1.323-1.08-2.505-2.331-3.8-3.452a8.968,8.968,0,0,0-1.556-.9c-.085-.047-.25-.078-.253-.125a2.8,2.8,0,0,0-2-2.373c-.28-.129-.377-.616-.613-.893-.313-.367-.624-.848-1.036-.989-.578-.2-1.125-.163-.742-1.046.062-.144-.519-.559-.792-.858a28.694,28.694,0,0,0-3.254-3.5c-2.042-1.587-3.578-3.665-5.6-5.27-3.113-2.465-5.952-5.278-9.093-7.7-3.868-2.986-7.778-5.949-12.278-7.992-1.552-.7-3.008-1.635-4.591-2.251a23.908,23.908,0,0,0-8.89-1.711,11.746,11.746,0,0,1-1.307-.106l-2.26,4.153-.2-.032.62-3.055-.36-.124a9.873,9.873,0,0,0-.758,2.219c-.078.781.174,1.594.05,2.48l-.3-.352-.235.134.455.793-1.583,3.792.309.035c-.045.278-.088.556-.134.833a5.033,5.033,0,0,0-.192,1.21c.153,1.749.327,3.5.57,5.235a7.872,7.872,0,0,0,.6,1.631c.014.037.083.085.078.094-1.145,1.629.558,3.169.162,4.827-.133.556.559,1.273.725,1.952a4.821,4.821,0,0,1-.2,1.517c.848.525.81,1.569.408,2.67,1.166.427,1.231.789.482,1.741-.157.2-.023.629-.023,1.308l.391-.794c.7,1.289.705,1.828.136,2.049l.411,2.683.217-.771.351,0a13.7,13.7,0,0,0,.02,1.782,5.342,5.342,0,0,0,.449,1.185l-.837.39c.393.461.879.817,1.033,1.284.114.342-.207.828-.373,1.378.7.634.56.622.369,2.792-.084.958.54,1.979.845,2.971a9.538,9.538,0,0,0,.583,1.783,5.065,5.065,0,0,0,1.186,1.369c.126.108.647-.042.815-.228a17.982,17.982,0,0,0,1.181-1.589c.1-.481.153-1.311.305-1.33.721-.091,1.715-.4,1.679.548a11.727,11.727,0,0,1,2.2-.842c.287-.054.693.518,1.149.89.485-.25,1.817.153,1.677-.952-.126-1,.377-1.263,1.009-1.747l-1.019-.7.722-.346-.445-.4c1.014-.516,1.531.142,1.968.831.11.173-.073.531-.2.724.492.225.466.61-.466,1.125.392.392.392.392,1.953-.055a15.514,15.514,0,0,0,.436-7.253l-.823.374-.13-.175.866-.784a14,14,0,0,1-.668-1.85,9.266,9.266,0,0,1-.28-2.43c.031-.661-.042-.979-.757-1.116-.211-.041-.46-.631-.444-.958.04-.8-.976-1.58-.074-2.412.05-.046-.05-.347-.156-.456-.985-1.011-.816-2.433-1.325-3.6-.208-.476-.767-.8-1.2-1.231.866-1.043.44-2.2-1.319-3.548a8.435,8.435,0,0,0,.032-2.089c-.656-2.422-1.378-4.828-2.143-7.218-.126-.393-.591-.676-.684-.777-.247-.845-.452-1.486-.618-2.136a8.391,8.391,0,0,1-.137-.989c.346-.024.747-.175,1.028-.051a52.2,52.2,0,0,1,7.869,4.346A110.947,110.947,0,0,1,57.43,91.662c1.859,1.807,3.589,3.746,5.4,5.6,2.061,2.108,4.169,4.17,6.22,6.287,1.918,1.98,3.682,4.122,5.711,5.978a64.342,64.342,0,0,0,5.978,4.614c1.833,1.316,3.826,1,5.819.327.656-.223,1.348-.343,2.025-.5.712-.168,1.722.239,1.874-1.023.015-.125.5-.194.765-.288,1.8-.635,3.406-1.65,3.768-3.6.37-2,.937-4.1-.42-6.068-.271-.393,0-1.128-.078-1.691a24.387,24.387,0,0,0-.6-3.14c-.488-1.722-1.054-3.424-1.653-5.112-.126-.356-.537-.611-.584-.976-.25-.748-.458-1.514-.758-2.242-1.235-3-2.307-6.083-3.826-8.931C86.226,79.307,86,77.21,84.1,76.262c.5-1.132-.461-1.781-.944-2.5-1.6-2.393-2.991-4.936-5.145-6.951a13.176,13.176,0,0,1-1.841-2.851l-1.026.188c0-.621.149-1.093-.024-1.311a21.426,21.426,0,0,0-3.46-3.984c-1.243-.94-1.89-2.26-2.927-3.308-2.948-2.982-5.67-6.189-8.642-9.146-1.315-1.309-2.654-2.77-4.642-3.181-.822.692-1.221.424-2.113-1.589a6.267,6.267,0,0,1,1.146.875c.317.267.664.5,1,.746l.857-.551-6.13-5.475c.277-.6-3.347-3.451-4.963-3.559-.166.308-.289.735-.419.738a1.848,1.848,0,0,1-1.109-.275c-.824-.642-1.573-1.379-2.361-2.068-1.276-1.115-2.527-2.264-3.849-3.322-2.471-1.979-4.994-3.892-7.479-5.853-1.538-1.213-3.042-2.468-4.57-3.693-.71-.57-1.468-1.084-2.149-1.685a4.534,4.534,0,0,1-.671-1.023l-1.911-1.43c-1-.653-2.035-1.262-3-1.97-1.367-1.008-2.68-2.09-4.015-3.14l.266-.434q.648.322,1.3.643c.325.161.651.32.976.479L15.4,9.406a15.244,15.244,0,0,0,1.887.2c4.1-.109,8.2-.321,12.3-.346,2.161-.013,4.322.321,6.487.422.876.041,1.761-.183,2.641-.18,1.317,0,2.636.077,3.951.168,2.3.159,4.591.361,6.887.531a25.641,25.641,0,0,0,3.017.146c.667-.03,1.5-.207.608-1.18-.121-.132-.1-.409-.113-.621-.043-.837-.022-1.681-.133-2.508a1.087,1.087,0,0,0-.6-.783c-2.663-.524-5.338-.985-8.012-1.454-.086-.015-.19.068-.638.244l3.679,1.089A73.989,73.989,0,0,1,30.731,3.418L30.7,2.974A8.49,8.49,0,0,1,32.515,2.9c.916.151,1.824.673,2.472-.1l4.1.64.062-.459A139.271,139.271,0,0,0,16.813.584V1.806l-.043-.06,1.785.688-.095.242ZM39.417,103.73l-.239.279c-.62-.109-1.761.573-1.368-1.087a.879.879,0,0,0-.223-.571c-.471-.657-.964-1.3-1.424-1.91l1.265-.752-.121-.263H36.4c-.049-.658-.09-1.218-.132-1.779l-.206.133-1.316-2.525,1.79.124c-.484.791-.274,1.139.554,1.273,1.364.221,1.758,1.051,1.443,2.319l.205,1.4-.266.038.652.712-.78,1.192c.457-.116.787-.309,1-.22a.788.788,0,0,1,.3.718c-.052.184-.434.275-.654.4Zm51.515-5.74.408-.214a5.5,5.5,0,0,1,1.147.629c.263.234.363.9.561.915.978.053.26.651.332.946.164.673,0,1.5.344,2.036.453.713.544,1.253.169,1.509l-.151,2.621h-.309ZM31.517,82.412c0-.565.031-.968-.006-1.366-.086-.932-.243-1.858-.3-2.79a5.694,5.694,0,0,0-1.544-3.572c-.075-.083.273-.8.545-.9,1.437-.54.344,1.432,1.333,1.4a2.677,2.677,0,0,0-.011.5c.069.426.018,1.063.271,1.233,1.122.751.04,2.072.884,2.924a5.035,5.035,0,0,1,.721,1.836c.08.224.259.581.177.664a6.049,6.049,0,0,1-1,.7l-.113-.681Zm8.435,23.373-.167,1.692L37.391,105.7c1.512.294,1.05-.642.9-1.748Zm23.835-52.9c2.113,0,2.066,2.253,3.41,2.926l-1.76-.433.243-.262ZM33.877,92.534l.117-.441,2.168.117.225,2.078-1.081.139.271-1.521ZM49.4,37.855,49.25,38c-1.038-.725-2.113-1.4-3.1-2.189-.771-.616-.669-.889-.051-1.066ZM35.407,90.968l-.053.382-1.667-.3-.4-.023.993-2.2.443.114c-.042.548-.083,1.1-.125,1.65ZM56.49,45.516a9.4,9.4,0,0,1,1.433-.2c.265.009.675.124.749.3a1.011,1.011,0,0,1-.2.821.7.7,0,0,1-.662.161A13.106,13.106,0,0,1,56.49,45.516ZM91.131,96.145l-.8-.017c.04-.607.07-1.214.149-1.816a5.523,5.523,0,0,1,.694.011Q91.153,95.235,91.131,96.145ZM16.772,1.746l-.8.914c-.1-.207-.176-.572-.31-.6-1.295-.23-2.6-.4-3.983-.6-.266-.758.457-.9,1.045-.913,1.218-.022,2.44.092,3.412.138l.684,1.12Zm5.494,13.531c.914.664,1.93,1.186,2.845,1.847a4.845,4.845,0,0,1,.854,1.115l-.188.066-3.136-1.824-1.911-1.43-.065-1.3A15.947,15.947,0,0,0,22.266,15.277Zm9.46,6.587c-1.135.543-1.4.381-2.392-1.365Z" transform="matrix(0.839, -0.545, 0.545, 0.839, -0.004, 51.975)" fill="#00c4cc"/></svg>